<mxfile host="app.diagrams.net" modified="2023-06-30T00:56:38.182Z" agent="Mozilla/5.0 (Windows NT 10.0; Win64; x64) AppleWebKit/537.36 (KHTML, like Gecko) Chrome/114.0.0.0 Safari/537.36" etag="zO5dNK8kjZ3MQM4ePAop" version="21.5.2" type="device" pages="9">
  <diagram id="J9ctfZpjFAYpr1_emeNR" name="유스케이스명세서">
    <mxGraphModel dx="1647" dy="840" grid="1" gridSize="10" guides="1" tooltips="1" connect="1" arrows="1" fold="1" page="1" pageScale="1" pageWidth="3300" pageHeight="4681" math="0" shadow="0">
      <root>
        <mxCell id="0" />
        <mxCell id="1" parent="0" />
        <mxCell id="M6_xjzXNK5rNbxGQC1HC-1" value="□유스케이스 명: 상품 결제&lt;br&gt;□행위자 : 회원, 상품 결제 시스템&lt;br&gt;□유스케이스 개요 및 설명: 고객은 쇼핑몰에서 배송 조회를 한다&lt;br&gt;□사전 조건:&amp;nbsp; 로그인 후 상품을 선택한 상황이다&lt;br&gt;□이벤트 흐름&lt;br&gt;-정상흐름&lt;br&gt;① 고객은 결제를 선택한다&lt;br&gt;②시스템은 신원 확인을 위해 정보를 보여준다&lt;br&gt;③고객은 정보가 일치한지 확인한다(E1)&lt;br&gt;④시스템은 고객의 기존 주소를 보여주고 만약의 변경을 위해 새 주소창도 보여준다&lt;br&gt;⑤고객이 기존 주소를 선택한다&lt;br&gt;⑥시스템은 고객한테 선택 상품 및 결제금액을 보여준다&lt;br&gt;⑦고객은 결제하기를 선택한다&lt;br&gt;⑧시스템은 고객한테 결제방식을 보여준다&lt;br&gt;⑨고객은 무통장입금을 선택한다(E2)&lt;br&gt;⑩시스템은 고객한테 무통장 계좌를 받을 핸드폰 번호를 입력하라는 창을 띄워준다&lt;br&gt;⑪고객은 핸드폰 번호를 입력한다&lt;br&gt;⑫시스템은 고객이 입력한 번호로 무통장 계좌번호를 보내준다&lt;br&gt;⑬고객은 받은 계좌번호로 송금한다&lt;br&gt;⑭시스템은 입금 확인후 고객한테 주문완료 문자를 안내한다.&lt;br&gt;⑮결제가 종료된다.&lt;br&gt;-대안흐름&lt;br&gt;(E1) 고객의 정보가 불일치한다&lt;br&gt;①고객은 자신의 정보가 불일치하다고 시스템에 알린다&lt;br&gt;②시스템은 고객의 정보를 재입력할 창을 보여준다&lt;br&gt;③고객은 정보를 재입력한다&lt;br&gt;(E2) 고객이 다른 결제방식을 선택을 원한다&lt;br&gt;①고객은 결제방식을 바꾼다고 시스템에 알린다&lt;br&gt;②시스템은 고객한테 다른 결제방식창을 보여준다&lt;br&gt;③고객은 새로운 결제방식을 선택한다&lt;br&gt;-예외흐름&lt;br&gt;없음" style="rounded=0;whiteSpace=wrap;html=1;align=left;" parent="1" vertex="1">
          <mxGeometry x="30" y="30" width="450" height="505" as="geometry" />
        </mxCell>
      </root>
    </mxGraphModel>
  </diagram>
  <diagram id="71Lczo4TYeKiQLj_53mo" name="유스케이스 다이어그램">
    <mxGraphModel dx="1887" dy="904" grid="1" gridSize="10" guides="1" tooltips="1" connect="1" arrows="1" fold="1" page="1" pageScale="1" pageWidth="3300" pageHeight="4681" math="0" shadow="0">
      <root>
        <mxCell id="0" />
        <mxCell id="1" parent="0" />
        <mxCell id="YkP6NWJ3N2Dvx5h8llYC-1" value="무신사&amp;nbsp;&lt;br&gt;홈페이지" style="shape=umlFrame;whiteSpace=wrap;html=1;pointerEvents=0;rounded=1;" parent="1" vertex="1">
          <mxGeometry x="340" y="110" width="960" height="925" as="geometry" />
        </mxCell>
        <mxCell id="YkP6NWJ3N2Dvx5h8llYC-2" value="회원" style="shape=umlActor;verticalLabelPosition=bottom;verticalAlign=top;html=1;rounded=1;" parent="1" vertex="1">
          <mxGeometry x="90" y="295" width="50" height="90" as="geometry" />
        </mxCell>
        <mxCell id="YkP6NWJ3N2Dvx5h8llYC-3" value="비회원" style="shape=umlActor;verticalLabelPosition=bottom;verticalAlign=top;html=1;rounded=1;" parent="1" vertex="1">
          <mxGeometry x="180" y="825" width="50" height="90" as="geometry" />
        </mxCell>
        <mxCell id="YkP6NWJ3N2Dvx5h8llYC-4" value="고객센터" style="ellipse;whiteSpace=wrap;html=1;rounded=1;" parent="1" vertex="1">
          <mxGeometry x="420" y="940" width="140" height="70" as="geometry" />
        </mxCell>
        <mxCell id="YkP6NWJ3N2Dvx5h8llYC-5" value="Use" style="endArrow=open;endSize=12;dashed=1;html=1;rounded=1;exitX=0.5;exitY=0.5;exitDx=0;exitDy=0;exitPerimeter=0;entryX=0;entryY=0.571;entryDx=0;entryDy=0;entryPerimeter=0;" parent="1" source="YkP6NWJ3N2Dvx5h8llYC-3" target="YkP6NWJ3N2Dvx5h8llYC-4" edge="1">
          <mxGeometry width="160" relative="1" as="geometry">
            <mxPoint x="250" y="705" as="sourcePoint" />
            <mxPoint x="410" y="705" as="targetPoint" />
          </mxGeometry>
        </mxCell>
        <mxCell id="YkP6NWJ3N2Dvx5h8llYC-6" value="Use" style="endArrow=open;endSize=12;dashed=1;html=1;rounded=1;exitX=0.5;exitY=0.5;exitDx=0;exitDy=0;exitPerimeter=0;entryX=0;entryY=0;entryDx=0;entryDy=0;" parent="1" source="YkP6NWJ3N2Dvx5h8llYC-2" target="YkP6NWJ3N2Dvx5h8llYC-4" edge="1">
          <mxGeometry width="160" relative="1" as="geometry">
            <mxPoint x="270" y="510" as="sourcePoint" />
            <mxPoint x="465" y="425" as="targetPoint" />
          </mxGeometry>
        </mxCell>
        <mxCell id="YkP6NWJ3N2Dvx5h8llYC-7" value="상품 조회" style="ellipse;whiteSpace=wrap;html=1;rounded=1;" parent="1" vertex="1">
          <mxGeometry x="420" y="825" width="140" height="70" as="geometry" />
        </mxCell>
        <mxCell id="YkP6NWJ3N2Dvx5h8llYC-8" value="Use" style="endArrow=open;endSize=12;dashed=1;html=1;rounded=1;entryX=0;entryY=0;entryDx=0;entryDy=0;exitX=0.5;exitY=0.5;exitDx=0;exitDy=0;exitPerimeter=0;" parent="1" source="YkP6NWJ3N2Dvx5h8llYC-2" target="YkP6NWJ3N2Dvx5h8llYC-7" edge="1">
          <mxGeometry width="160" relative="1" as="geometry">
            <mxPoint x="250" y="445" as="sourcePoint" />
            <mxPoint x="476" y="610" as="targetPoint" />
          </mxGeometry>
        </mxCell>
        <mxCell id="YkP6NWJ3N2Dvx5h8llYC-9" value="Use" style="endArrow=open;endSize=12;dashed=1;html=1;rounded=1;entryX=0;entryY=0.5;entryDx=0;entryDy=0;exitX=0.5;exitY=0.5;exitDx=0;exitDy=0;exitPerimeter=0;" parent="1" source="YkP6NWJ3N2Dvx5h8llYC-3" target="YkP6NWJ3N2Dvx5h8llYC-7" edge="1">
          <mxGeometry width="160" relative="1" as="geometry">
            <mxPoint x="224" y="500" as="sourcePoint" />
            <mxPoint x="430" y="645" as="targetPoint" />
          </mxGeometry>
        </mxCell>
        <mxCell id="YkP6NWJ3N2Dvx5h8llYC-10" value="최근 본 상품" style="ellipse;whiteSpace=wrap;html=1;rounded=1;" parent="1" vertex="1">
          <mxGeometry x="415" y="690" width="140" height="70" as="geometry" />
        </mxCell>
        <mxCell id="YkP6NWJ3N2Dvx5h8llYC-11" value="Use" style="endArrow=open;endSize=12;dashed=1;html=1;rounded=1;entryX=0;entryY=0;entryDx=0;entryDy=0;exitX=0.5;exitY=0.5;exitDx=0;exitDy=0;exitPerimeter=0;" parent="1" source="YkP6NWJ3N2Dvx5h8llYC-2" target="YkP6NWJ3N2Dvx5h8llYC-10" edge="1">
          <mxGeometry width="160" relative="1" as="geometry">
            <mxPoint x="290" y="340" as="sourcePoint" />
            <mxPoint x="495" y="485" as="targetPoint" />
          </mxGeometry>
        </mxCell>
        <mxCell id="YkP6NWJ3N2Dvx5h8llYC-12" value="Use" style="endArrow=open;endSize=12;dashed=1;html=1;rounded=1;entryX=0;entryY=1;entryDx=0;entryDy=0;exitX=0.5;exitY=0.5;exitDx=0;exitDy=0;exitPerimeter=0;" parent="1" source="YkP6NWJ3N2Dvx5h8llYC-3" target="YkP6NWJ3N2Dvx5h8llYC-10" edge="1">
          <mxGeometry width="160" relative="1" as="geometry">
            <mxPoint x="190" y="535" as="sourcePoint" />
            <mxPoint x="395" y="680" as="targetPoint" />
          </mxGeometry>
        </mxCell>
        <mxCell id="YkP6NWJ3N2Dvx5h8llYC-13" value="상품주문" style="ellipse;whiteSpace=wrap;html=1;rounded=1;" parent="1" vertex="1">
          <mxGeometry x="430" y="150" width="140" height="70" as="geometry" />
        </mxCell>
        <mxCell id="YkP6NWJ3N2Dvx5h8llYC-14" value="인증" style="ellipse;whiteSpace=wrap;html=1;rounded=1;" parent="1" vertex="1">
          <mxGeometry x="760" y="330" width="140" height="70" as="geometry" />
        </mxCell>
        <mxCell id="YkP6NWJ3N2Dvx5h8llYC-15" value="&amp;lt;&amp;lt;Include&amp;gt;&amp;gt;" style="endArrow=open;endSize=12;dashed=1;html=1;rounded=1;entryX=0;entryY=0.5;entryDx=0;entryDy=0;exitX=1.01;exitY=0.575;exitDx=0;exitDy=0;exitPerimeter=0;" parent="1" source="YkP6NWJ3N2Dvx5h8llYC-13" target="YkP6NWJ3N2Dvx5h8llYC-14" edge="1">
          <mxGeometry width="160" relative="1" as="geometry">
            <mxPoint x="540" y="407.5" as="sourcePoint" />
            <mxPoint x="745" y="472.5" as="targetPoint" />
          </mxGeometry>
        </mxCell>
        <mxCell id="YkP6NWJ3N2Dvx5h8llYC-16" value="Use" style="endArrow=open;endSize=12;dashed=1;html=1;rounded=1;entryX=0;entryY=0.5;entryDx=0;entryDy=0;exitX=0.5;exitY=0.5;exitDx=0;exitDy=0;exitPerimeter=0;" parent="1" source="YkP6NWJ3N2Dvx5h8llYC-2" target="YkP6NWJ3N2Dvx5h8llYC-13" edge="1">
          <mxGeometry width="160" relative="1" as="geometry">
            <mxPoint x="270" y="375" as="sourcePoint" />
            <mxPoint x="475" y="440" as="targetPoint" />
          </mxGeometry>
        </mxCell>
        <mxCell id="YkP6NWJ3N2Dvx5h8llYC-17" value="상품결제" style="ellipse;whiteSpace=wrap;html=1;rounded=1;" parent="1" vertex="1">
          <mxGeometry x="420" y="270" width="140" height="70" as="geometry" />
        </mxCell>
        <mxCell id="YkP6NWJ3N2Dvx5h8llYC-18" value="&amp;lt;&amp;lt;Include&amp;gt;&amp;gt;" style="endArrow=open;endSize=12;dashed=1;html=1;rounded=1;entryX=0;entryY=0.5;entryDx=0;entryDy=0;exitX=1;exitY=0.5;exitDx=0;exitDy=0;" parent="1" source="YkP6NWJ3N2Dvx5h8llYC-17" target="YkP6NWJ3N2Dvx5h8llYC-14" edge="1">
          <mxGeometry width="160" relative="1" as="geometry">
            <mxPoint x="571" y="382.5" as="sourcePoint" />
            <mxPoint x="680" y="457.5" as="targetPoint" />
          </mxGeometry>
        </mxCell>
        <mxCell id="YkP6NWJ3N2Dvx5h8llYC-19" value="Use" style="endArrow=open;endSize=12;dashed=1;html=1;rounded=1;entryX=0;entryY=0.5;entryDx=0;entryDy=0;exitX=0.5;exitY=0.5;exitDx=0;exitDy=0;exitPerimeter=0;" parent="1" source="YkP6NWJ3N2Dvx5h8llYC-2" target="YkP6NWJ3N2Dvx5h8llYC-17" edge="1">
          <mxGeometry width="160" relative="1" as="geometry">
            <mxPoint x="255" y="450" as="sourcePoint" />
            <mxPoint x="440" y="350" as="targetPoint" />
          </mxGeometry>
        </mxCell>
        <mxCell id="YkP6NWJ3N2Dvx5h8llYC-20" value="배송조회" style="ellipse;whiteSpace=wrap;html=1;rounded=1;" parent="1" vertex="1">
          <mxGeometry x="415" y="430" width="140" height="70" as="geometry" />
        </mxCell>
        <mxCell id="YkP6NWJ3N2Dvx5h8llYC-21" value="&amp;lt;&amp;lt;Include&amp;gt;&amp;gt;" style="endArrow=open;endSize=12;dashed=1;html=1;rounded=1;entryX=0;entryY=0.5;entryDx=0;entryDy=0;exitX=1;exitY=0.5;exitDx=0;exitDy=0;" parent="1" source="YkP6NWJ3N2Dvx5h8llYC-20" target="YkP6NWJ3N2Dvx5h8llYC-14" edge="1">
          <mxGeometry width="160" relative="1" as="geometry">
            <mxPoint x="570" y="499.79999999999995" as="sourcePoint" />
            <mxPoint x="680" y="499.79999999999995" as="targetPoint" />
          </mxGeometry>
        </mxCell>
        <mxCell id="YkP6NWJ3N2Dvx5h8llYC-22" value="마이페이지" style="ellipse;whiteSpace=wrap;html=1;rounded=1;" parent="1" vertex="1">
          <mxGeometry x="420" y="510" width="140" height="70" as="geometry" />
        </mxCell>
        <mxCell id="YkP6NWJ3N2Dvx5h8llYC-23" value="&amp;lt;&amp;lt;Include&amp;gt;&amp;gt;" style="endArrow=open;endSize=12;dashed=1;html=1;rounded=1;entryX=0.008;entryY=0.529;entryDx=0;entryDy=0;exitX=0.996;exitY=0.533;exitDx=0;exitDy=0;entryPerimeter=0;exitPerimeter=0;" parent="1" source="YkP6NWJ3N2Dvx5h8llYC-22" target="YkP6NWJ3N2Dvx5h8llYC-14" edge="1">
          <mxGeometry width="160" relative="1" as="geometry">
            <mxPoint x="570" y="575" as="sourcePoint" />
            <mxPoint x="680" y="495" as="targetPoint" />
          </mxGeometry>
        </mxCell>
        <mxCell id="YkP6NWJ3N2Dvx5h8llYC-24" value="Use" style="endArrow=open;endSize=12;dashed=1;html=1;rounded=1;entryX=0;entryY=0.5;entryDx=0;entryDy=0;exitX=0.464;exitY=0.503;exitDx=0;exitDy=0;exitPerimeter=0;" parent="1" source="YkP6NWJ3N2Dvx5h8llYC-2" target="YkP6NWJ3N2Dvx5h8llYC-20" edge="1">
          <mxGeometry width="160" relative="1" as="geometry">
            <mxPoint x="215" y="540" as="sourcePoint" />
            <mxPoint x="440" y="430" as="targetPoint" />
          </mxGeometry>
        </mxCell>
        <mxCell id="YkP6NWJ3N2Dvx5h8llYC-25" value="Use" style="endArrow=open;endSize=12;dashed=1;html=1;rounded=1;entryX=0;entryY=0.429;entryDx=0;entryDy=0;exitX=0.5;exitY=0.5;exitDx=0;exitDy=0;exitPerimeter=0;entryPerimeter=0;" parent="1" source="YkP6NWJ3N2Dvx5h8llYC-2" target="YkP6NWJ3N2Dvx5h8llYC-22" edge="1">
          <mxGeometry width="160" relative="1" as="geometry">
            <mxPoint x="213" y="540" as="sourcePoint" />
            <mxPoint x="440" y="510" as="targetPoint" />
          </mxGeometry>
        </mxCell>
        <mxCell id="YkP6NWJ3N2Dvx5h8llYC-26" value="" style="edgeStyle=orthogonalEdgeStyle;rounded=1;orthogonalLoop=1;jettySize=auto;html=1;" parent="1" source="YkP6NWJ3N2Dvx5h8llYC-27" target="YkP6NWJ3N2Dvx5h8llYC-22" edge="1">
          <mxGeometry relative="1" as="geometry" />
        </mxCell>
        <mxCell id="YkP6NWJ3N2Dvx5h8llYC-27" value="등록" style="ellipse;whiteSpace=wrap;html=1;rounded=1;" parent="1" vertex="1">
          <mxGeometry x="380" y="620" width="50" height="30" as="geometry" />
        </mxCell>
        <mxCell id="YkP6NWJ3N2Dvx5h8llYC-28" value="" style="edgeStyle=orthogonalEdgeStyle;rounded=1;orthogonalLoop=1;jettySize=auto;html=1;" parent="1" source="YkP6NWJ3N2Dvx5h8llYC-29" target="YkP6NWJ3N2Dvx5h8llYC-22" edge="1">
          <mxGeometry relative="1" as="geometry" />
        </mxCell>
        <mxCell id="YkP6NWJ3N2Dvx5h8llYC-29" value="조회" style="ellipse;whiteSpace=wrap;html=1;rounded=1;" parent="1" vertex="1">
          <mxGeometry x="430" y="620" width="50" height="30" as="geometry" />
        </mxCell>
        <mxCell id="YkP6NWJ3N2Dvx5h8llYC-30" value="" style="edgeStyle=orthogonalEdgeStyle;rounded=1;orthogonalLoop=1;jettySize=auto;html=1;" parent="1" source="YkP6NWJ3N2Dvx5h8llYC-31" target="YkP6NWJ3N2Dvx5h8llYC-22" edge="1">
          <mxGeometry relative="1" as="geometry" />
        </mxCell>
        <mxCell id="YkP6NWJ3N2Dvx5h8llYC-31" value="수정" style="ellipse;whiteSpace=wrap;html=1;rounded=1;" parent="1" vertex="1">
          <mxGeometry x="550" y="620" width="50" height="30" as="geometry" />
        </mxCell>
        <mxCell id="YkP6NWJ3N2Dvx5h8llYC-32" value="" style="edgeStyle=orthogonalEdgeStyle;rounded=1;orthogonalLoop=1;jettySize=auto;html=1;" parent="1" source="YkP6NWJ3N2Dvx5h8llYC-33" target="YkP6NWJ3N2Dvx5h8llYC-22" edge="1">
          <mxGeometry relative="1" as="geometry" />
        </mxCell>
        <mxCell id="YkP6NWJ3N2Dvx5h8llYC-33" value="탈퇴" style="ellipse;whiteSpace=wrap;html=1;rounded=1;" parent="1" vertex="1">
          <mxGeometry x="500" y="620" width="50" height="30" as="geometry" />
        </mxCell>
        <mxCell id="YkP6NWJ3N2Dvx5h8llYC-34" value="상품상세조회" style="ellipse;whiteSpace=wrap;html=1;rounded=1;" parent="1" vertex="1">
          <mxGeometry x="710" y="760" width="140" height="70" as="geometry" />
        </mxCell>
        <mxCell id="YkP6NWJ3N2Dvx5h8llYC-35" value="&amp;lt;&amp;lt;Extends&amp;gt;&amp;gt;" style="endArrow=open;endSize=12;dashed=1;html=1;rounded=1;exitX=-0.009;exitY=0.555;exitDx=0;exitDy=0;exitPerimeter=0;entryX=1;entryY=0.5;entryDx=0;entryDy=0;" parent="1" source="YkP6NWJ3N2Dvx5h8llYC-34" target="YkP6NWJ3N2Dvx5h8llYC-7" edge="1">
          <mxGeometry width="160" relative="1" as="geometry">
            <mxPoint x="600" y="845" as="sourcePoint" />
            <mxPoint x="835" y="900" as="targetPoint" />
          </mxGeometry>
        </mxCell>
        <mxCell id="YkP6NWJ3N2Dvx5h8llYC-36" value="&amp;lt;&amp;lt;Extends&amp;gt;&amp;gt;" style="endArrow=open;endSize=12;dashed=1;html=1;rounded=1;exitX=0;exitY=0;exitDx=0;exitDy=0;entryX=1;entryY=0.5;entryDx=0;entryDy=0;" parent="1" source="YkP6NWJ3N2Dvx5h8llYC-34" target="YkP6NWJ3N2Dvx5h8llYC-10" edge="1">
          <mxGeometry x="0.0081" width="160" relative="1" as="geometry">
            <mxPoint x="659" y="745" as="sourcePoint" />
            <mxPoint x="590" y="751" as="targetPoint" />
            <mxPoint as="offset" />
          </mxGeometry>
        </mxCell>
        <mxCell id="YkP6NWJ3N2Dvx5h8llYC-37" value="" style="edgeStyle=orthogonalEdgeStyle;rounded=1;orthogonalLoop=1;jettySize=auto;html=1;" parent="1" source="YkP6NWJ3N2Dvx5h8llYC-38" target="YkP6NWJ3N2Dvx5h8llYC-17" edge="1">
          <mxGeometry relative="1" as="geometry" />
        </mxCell>
        <mxCell id="YkP6NWJ3N2Dvx5h8llYC-38" value="&lt;font style=&quot;font-size: 10px;&quot;&gt;카드&lt;/font&gt;" style="ellipse;whiteSpace=wrap;html=1;rounded=1;" parent="1" vertex="1">
          <mxGeometry x="390" y="380" width="50" height="30" as="geometry" />
        </mxCell>
        <mxCell id="YkP6NWJ3N2Dvx5h8llYC-39" value="" style="edgeStyle=orthogonalEdgeStyle;rounded=1;orthogonalLoop=1;jettySize=auto;html=1;" parent="1" source="YkP6NWJ3N2Dvx5h8llYC-40" target="YkP6NWJ3N2Dvx5h8llYC-17" edge="1">
          <mxGeometry relative="1" as="geometry" />
        </mxCell>
        <mxCell id="YkP6NWJ3N2Dvx5h8llYC-40" value="&lt;font style=&quot;font-size: 10px;&quot;&gt;무통장&lt;/font&gt;" style="ellipse;whiteSpace=wrap;html=1;rounded=1;" parent="1" vertex="1">
          <mxGeometry x="440" y="380" width="50" height="30" as="geometry" />
        </mxCell>
        <mxCell id="YkP6NWJ3N2Dvx5h8llYC-41" value="" style="edgeStyle=orthogonalEdgeStyle;rounded=1;orthogonalLoop=1;jettySize=auto;html=1;" parent="1" source="YkP6NWJ3N2Dvx5h8llYC-42" target="YkP6NWJ3N2Dvx5h8llYC-17" edge="1">
          <mxGeometry relative="1" as="geometry" />
        </mxCell>
        <mxCell id="YkP6NWJ3N2Dvx5h8llYC-42" value="&lt;font style=&quot;font-size: 10px;&quot;&gt;포인트&lt;/font&gt;" style="ellipse;whiteSpace=wrap;html=1;rounded=1;" parent="1" vertex="1">
          <mxGeometry x="490" y="380" width="50" height="30" as="geometry" />
        </mxCell>
        <mxCell id="YkP6NWJ3N2Dvx5h8llYC-43" value="" style="edgeStyle=orthogonalEdgeStyle;rounded=1;orthogonalLoop=1;jettySize=auto;html=1;" parent="1" source="YkP6NWJ3N2Dvx5h8llYC-44" target="YkP6NWJ3N2Dvx5h8llYC-17" edge="1">
          <mxGeometry relative="1" as="geometry" />
        </mxCell>
        <mxCell id="YkP6NWJ3N2Dvx5h8llYC-44" value="&lt;font style=&quot;font-size: 10px;&quot;&gt;할인쿠폰&lt;/font&gt;" style="ellipse;whiteSpace=wrap;html=1;rounded=1;" parent="1" vertex="1">
          <mxGeometry x="540" y="380" width="50" height="30" as="geometry" />
        </mxCell>
        <mxCell id="YkP6NWJ3N2Dvx5h8llYC-46" value="관리자&lt;br&gt;및 판매자" style="shape=umlActor;verticalLabelPosition=bottom;verticalAlign=top;html=1;" parent="1" vertex="1">
          <mxGeometry x="1480" y="497.5" width="60" height="95" as="geometry" />
        </mxCell>
        <mxCell id="YkP6NWJ3N2Dvx5h8llYC-47" value="회원 관리" style="ellipse;whiteSpace=wrap;html=1;" parent="1" vertex="1">
          <mxGeometry x="1105" y="865" width="130" height="65" as="geometry" />
        </mxCell>
        <mxCell id="YkP6NWJ3N2Dvx5h8llYC-51" value="" style="edgeStyle=orthogonalEdgeStyle;rounded=0;orthogonalLoop=1;jettySize=auto;html=1;" parent="1" source="YkP6NWJ3N2Dvx5h8llYC-49" target="YkP6NWJ3N2Dvx5h8llYC-47" edge="1">
          <mxGeometry relative="1" as="geometry" />
        </mxCell>
        <mxCell id="VD1HyYtABZwaRvwxCtC1-2" value="" style="edgeStyle=orthogonalEdgeStyle;rounded=0;orthogonalLoop=1;jettySize=auto;html=1;" parent="1" source="YkP6NWJ3N2Dvx5h8llYC-48" target="YkP6NWJ3N2Dvx5h8llYC-47" edge="1">
          <mxGeometry relative="1" as="geometry" />
        </mxCell>
        <mxCell id="YkP6NWJ3N2Dvx5h8llYC-48" value="승인" style="ellipse;whiteSpace=wrap;html=1;" parent="1" vertex="1">
          <mxGeometry x="1080" y="985" width="60" height="50" as="geometry" />
        </mxCell>
        <mxCell id="YkP6NWJ3N2Dvx5h8llYC-52" value="" style="edgeStyle=orthogonalEdgeStyle;rounded=0;orthogonalLoop=1;jettySize=auto;html=1;" parent="1" source="YkP6NWJ3N2Dvx5h8llYC-49" target="YkP6NWJ3N2Dvx5h8llYC-47" edge="1">
          <mxGeometry relative="1" as="geometry" />
        </mxCell>
        <mxCell id="YkP6NWJ3N2Dvx5h8llYC-53" value="" style="edgeStyle=orthogonalEdgeStyle;rounded=0;orthogonalLoop=1;jettySize=auto;html=1;" parent="1" source="YkP6NWJ3N2Dvx5h8llYC-50" target="YkP6NWJ3N2Dvx5h8llYC-47" edge="1">
          <mxGeometry relative="1" as="geometry" />
        </mxCell>
        <mxCell id="YkP6NWJ3N2Dvx5h8llYC-50" value="보류" style="ellipse;whiteSpace=wrap;html=1;" parent="1" vertex="1">
          <mxGeometry x="1200" y="985" width="60" height="50" as="geometry" />
        </mxCell>
        <mxCell id="5tbH4L8ocJYOk8bkeosX-1" value="상품 관리" style="ellipse;whiteSpace=wrap;html=1;" parent="1" vertex="1">
          <mxGeometry x="1100" y="220" width="140" height="70" as="geometry" />
        </mxCell>
        <mxCell id="VD1HyYtABZwaRvwxCtC1-3" value="" style="edgeStyle=orthogonalEdgeStyle;rounded=0;orthogonalLoop=1;jettySize=auto;html=1;" parent="1" source="5tbH4L8ocJYOk8bkeosX-2" target="5tbH4L8ocJYOk8bkeosX-1" edge="1">
          <mxGeometry relative="1" as="geometry" />
        </mxCell>
        <mxCell id="5tbH4L8ocJYOk8bkeosX-2" value="상품 등록" style="ellipse;whiteSpace=wrap;html=1;" parent="1" vertex="1">
          <mxGeometry x="1080" y="120" width="60" height="50" as="geometry" />
        </mxCell>
        <mxCell id="VD1HyYtABZwaRvwxCtC1-5" value="" style="edgeStyle=orthogonalEdgeStyle;rounded=0;orthogonalLoop=1;jettySize=auto;html=1;" parent="1" source="5tbH4L8ocJYOk8bkeosX-3" target="5tbH4L8ocJYOk8bkeosX-1" edge="1">
          <mxGeometry relative="1" as="geometry" />
        </mxCell>
        <mxCell id="5tbH4L8ocJYOk8bkeosX-3" value="상품 삭제" style="ellipse;whiteSpace=wrap;html=1;" parent="1" vertex="1">
          <mxGeometry x="1140" y="120" width="60" height="50" as="geometry" />
        </mxCell>
        <mxCell id="VD1HyYtABZwaRvwxCtC1-4" value="" style="edgeStyle=orthogonalEdgeStyle;rounded=0;orthogonalLoop=1;jettySize=auto;html=1;" parent="1" source="5tbH4L8ocJYOk8bkeosX-4" target="5tbH4L8ocJYOk8bkeosX-1" edge="1">
          <mxGeometry relative="1" as="geometry" />
        </mxCell>
        <mxCell id="5tbH4L8ocJYOk8bkeosX-4" value="상품 배송" style="ellipse;whiteSpace=wrap;html=1;" parent="1" vertex="1">
          <mxGeometry x="1200" y="120" width="60" height="50" as="geometry" />
        </mxCell>
        <mxCell id="YkP6NWJ3N2Dvx5h8llYC-49" value="철회" style="ellipse;whiteSpace=wrap;html=1;" parent="1" vertex="1">
          <mxGeometry x="1140" y="985" width="60" height="50" as="geometry" />
        </mxCell>
        <mxCell id="7GhRojMJ7wCqy7yKTWJ1-1" value="관리 및&lt;br&gt;판매" style="ellipse;whiteSpace=wrap;html=1;" parent="1" vertex="1">
          <mxGeometry x="1100" y="510" width="140" height="70" as="geometry" />
        </mxCell>
        <mxCell id="7GhRojMJ7wCqy7yKTWJ1-4" value="&amp;lt;&amp;lt;Include&amp;gt;&amp;gt;" style="endArrow=open;endSize=12;dashed=1;html=1;rounded=0;exitX=0.5;exitY=0;exitDx=0;exitDy=0;entryX=0.5;entryY=1;entryDx=0;entryDy=0;" parent="1" source="7GhRojMJ7wCqy7yKTWJ1-1" target="5tbH4L8ocJYOk8bkeosX-1" edge="1">
          <mxGeometry width="160" relative="1" as="geometry">
            <mxPoint x="910" y="375" as="sourcePoint" />
            <mxPoint x="820" y="555" as="targetPoint" />
          </mxGeometry>
        </mxCell>
        <mxCell id="7GhRojMJ7wCqy7yKTWJ1-6" value="&amp;lt;&amp;lt;Include&amp;gt;&amp;gt;" style="endArrow=open;endSize=12;dashed=1;html=1;rounded=0;exitX=0;exitY=0.5;exitDx=0;exitDy=0;entryX=1;entryY=0.5;entryDx=0;entryDy=0;" parent="1" source="7GhRojMJ7wCqy7yKTWJ1-1" target="YkP6NWJ3N2Dvx5h8llYC-14" edge="1">
          <mxGeometry width="160" relative="1" as="geometry">
            <mxPoint x="910" y="375" as="sourcePoint" />
            <mxPoint x="820" y="555" as="targetPoint" />
          </mxGeometry>
        </mxCell>
        <mxCell id="7GhRojMJ7wCqy7yKTWJ1-7" value="홈페이지 관리" style="ellipse;whiteSpace=wrap;html=1;" parent="1" vertex="1">
          <mxGeometry x="770" y="522.5" width="140" height="70" as="geometry" />
        </mxCell>
        <mxCell id="DjAcVyurFOZU1-k_Z3bE-5" value="Use" style="endArrow=open;endSize=12;dashed=1;html=1;rounded=1;entryX=1;entryY=0.5;entryDx=0;entryDy=0;exitX=0.5;exitY=0.5;exitDx=0;exitDy=0;exitPerimeter=0;" parent="1" source="YkP6NWJ3N2Dvx5h8llYC-46" target="7GhRojMJ7wCqy7yKTWJ1-1" edge="1">
          <mxGeometry width="160" relative="1" as="geometry">
            <mxPoint x="1116.5" y="690" as="sourcePoint" />
            <mxPoint x="1343.5" y="630" as="targetPoint" />
          </mxGeometry>
        </mxCell>
        <mxCell id="DjAcVyurFOZU1-k_Z3bE-6" value="&amp;lt;&amp;lt;Include&amp;gt;&amp;gt;" style="endArrow=open;endSize=12;dashed=1;html=1;rounded=0;exitX=0.5;exitY=1;exitDx=0;exitDy=0;entryX=0.5;entryY=0;entryDx=0;entryDy=0;" parent="1" source="7GhRojMJ7wCqy7yKTWJ1-1" target="YkP6NWJ3N2Dvx5h8llYC-47" edge="1">
          <mxGeometry width="160" relative="1" as="geometry">
            <mxPoint x="1169.41" y="800" as="sourcePoint" />
            <mxPoint x="1169.41" y="580" as="targetPoint" />
          </mxGeometry>
        </mxCell>
        <mxCell id="FNod3l32jrGKkTJXjhua-4" value="&amp;lt;&amp;lt;Include&amp;gt;&amp;gt;" style="endArrow=open;endSize=12;dashed=1;html=1;rounded=0;exitX=0;exitY=0.5;exitDx=0;exitDy=0;entryX=1.012;entryY=0.579;entryDx=0;entryDy=0;entryPerimeter=0;" parent="1" source="7GhRojMJ7wCqy7yKTWJ1-1" target="7GhRojMJ7wCqy7yKTWJ1-7" edge="1">
          <mxGeometry width="160" relative="1" as="geometry">
            <mxPoint x="1040" y="730" as="sourcePoint" />
            <mxPoint x="1130" y="580" as="targetPoint" />
          </mxGeometry>
        </mxCell>
        <mxCell id="xXh-1fy0XfwV7YWIHSht-1" value="" style="group" parent="1" vertex="1" connectable="0">
          <mxGeometry x="920" y="710" width="140" height="220" as="geometry" />
        </mxCell>
        <mxCell id="X7P6d8z5axeNzFlFt7Rg-4" value="" style="edgeStyle=orthogonalEdgeStyle;rounded=0;orthogonalLoop=1;jettySize=auto;html=1;" parent="xXh-1fy0XfwV7YWIHSht-1" source="xXh-1fy0XfwV7YWIHSht-2" target="xXh-1fy0XfwV7YWIHSht-8" edge="1">
          <mxGeometry relative="1" as="geometry" />
        </mxCell>
        <mxCell id="xXh-1fy0XfwV7YWIHSht-2" value="카테고리 등록" style="ellipse;whiteSpace=wrap;html=1;" parent="xXh-1fy0XfwV7YWIHSht-1" vertex="1">
          <mxGeometry x="20" y="110" width="60" height="50" as="geometry" />
        </mxCell>
        <mxCell id="X7P6d8z5axeNzFlFt7Rg-3" value="" style="edgeStyle=orthogonalEdgeStyle;rounded=0;orthogonalLoop=1;jettySize=auto;html=1;" parent="xXh-1fy0XfwV7YWIHSht-1" source="xXh-1fy0XfwV7YWIHSht-4" target="xXh-1fy0XfwV7YWIHSht-8" edge="1">
          <mxGeometry relative="1" as="geometry" />
        </mxCell>
        <mxCell id="xXh-1fy0XfwV7YWIHSht-4" value="카테고리 변경" style="ellipse;whiteSpace=wrap;html=1;" parent="xXh-1fy0XfwV7YWIHSht-1" vertex="1">
          <mxGeometry x="80" y="110" width="60" height="50" as="geometry" />
        </mxCell>
        <mxCell id="xXh-1fy0XfwV7YWIHSht-8" value="카테고리&lt;br&gt;관리" style="ellipse;whiteSpace=wrap;html=1;" parent="xXh-1fy0XfwV7YWIHSht-1" vertex="1">
          <mxGeometry x="50" width="120" height="70" as="geometry" />
        </mxCell>
        <mxCell id="X7P6d8z5axeNzFlFt7Rg-1" value="&amp;lt;&amp;lt;Include&amp;gt;&amp;gt;" style="endArrow=open;endSize=12;dashed=1;html=1;rounded=0;entryX=1;entryY=0;entryDx=0;entryDy=0;exitX=0.5;exitY=1;exitDx=0;exitDy=0;" parent="1" source="7GhRojMJ7wCqy7yKTWJ1-1" target="xXh-1fy0XfwV7YWIHSht-8" edge="1">
          <mxGeometry width="160" relative="1" as="geometry">
            <mxPoint x="1120" y="570" as="sourcePoint" />
            <mxPoint x="1079.17" y="420" as="targetPoint" />
          </mxGeometry>
        </mxCell>
        <mxCell id="X7P6d8z5axeNzFlFt7Rg-2" value="" style="edgeStyle=orthogonalEdgeStyle;rounded=0;orthogonalLoop=1;jettySize=auto;html=1;" parent="1" source="xXh-1fy0XfwV7YWIHSht-6" target="xXh-1fy0XfwV7YWIHSht-8" edge="1">
          <mxGeometry relative="1" as="geometry" />
        </mxCell>
        <mxCell id="xXh-1fy0XfwV7YWIHSht-6" value="카테고리 삭제" style="ellipse;whiteSpace=wrap;html=1;" parent="1" vertex="1">
          <mxGeometry x="1060" y="820" width="60" height="50" as="geometry" />
        </mxCell>
      </root>
    </mxGraphModel>
  </diagram>
  <diagram id="Z7FyXEG5kR1SBSX_jrhM" name="요구사항정리">
    <mxGraphModel dx="807" dy="-862" grid="1" gridSize="10" guides="1" tooltips="1" connect="1" arrows="1" fold="1" page="1" pageScale="1" pageWidth="827" pageHeight="1169" math="0" shadow="0">
      <root>
        <mxCell id="0" />
        <mxCell id="1" parent="0" />
        <mxCell id="ruMcn3Yy5uqCS-zU-7RQ-1" value="" style="rounded=0;whiteSpace=wrap;html=1;" parent="1" vertex="1">
          <mxGeometry x="81" y="1330" width="339" height="250" as="geometry" />
        </mxCell>
        <mxCell id="ruMcn3Yy5uqCS-zU-7RQ-2" value="회원" style="text;html=1;align=center;verticalAlign=middle;resizable=0;points=[];autosize=1;strokeColor=none;fillColor=none;" parent="1" vertex="1">
          <mxGeometry x="81" y="1300" width="50" height="30" as="geometry" />
        </mxCell>
        <mxCell id="ruMcn3Yy5uqCS-zU-7RQ-3" value="선택한 제품을 주문 처리할 수 있다.&amp;nbsp;" style="text;html=1;align=center;verticalAlign=middle;resizable=0;points=[];autosize=1;strokeColor=none;fillColor=none;" parent="1" vertex="1">
          <mxGeometry x="81" y="1380" width="210" height="30" as="geometry" />
        </mxCell>
        <mxCell id="ruMcn3Yy5uqCS-zU-7RQ-4" value="[주문 서비스]" style="text;html=1;align=center;verticalAlign=middle;resizable=0;points=[];autosize=1;strokeColor=none;fillColor=none;" parent="1" vertex="1">
          <mxGeometry x="86" y="1340" width="90" height="30" as="geometry" />
        </mxCell>
        <mxCell id="ruMcn3Yy5uqCS-zU-7RQ-5" value="기존 주문 정보를 조회 처리할 수 있다.&amp;nbsp;" style="text;html=1;align=center;verticalAlign=middle;resizable=0;points=[];autosize=1;strokeColor=none;fillColor=none;" parent="1" vertex="1">
          <mxGeometry x="80" y="1440" width="230" height="30" as="geometry" />
        </mxCell>
        <mxCell id="ruMcn3Yy5uqCS-zU-7RQ-6" value="기존 주문을 취소 처리할 수 있다." style="text;html=1;align=center;verticalAlign=middle;resizable=0;points=[];autosize=1;strokeColor=none;fillColor=none;" parent="1" vertex="1">
          <mxGeometry x="80" y="1410" width="200" height="30" as="geometry" />
        </mxCell>
      </root>
    </mxGraphModel>
  </diagram>
  <diagram id="2G0gHpEym8FPBoJEQaSV" name="ERD">
    <mxGraphModel dx="1647" dy="805" grid="1" gridSize="10" guides="1" tooltips="1" connect="1" arrows="1" fold="1" page="1" pageScale="1" pageWidth="1200" pageHeight="1600" math="0" shadow="0">
      <root>
        <mxCell id="0" />
        <mxCell id="1" parent="0" />
        <mxCell id="db0l6RPyGzE5sk9retDZ-1" value="회원테이블" style="shape=table;startSize=30;container=1;collapsible=1;childLayout=tableLayout;fixedRows=1;rowLines=0;fontStyle=1;align=center;resizeLast=1;html=1;" parent="1" vertex="1">
          <mxGeometry x="60" y="320" width="180" height="150" as="geometry" />
        </mxCell>
        <mxCell id="db0l6RPyGzE5sk9retDZ-2" value="" style="shape=tableRow;horizontal=0;startSize=0;swimlaneHead=0;swimlaneBody=0;fillColor=none;collapsible=0;dropTarget=0;points=[[0,0.5],[1,0.5]];portConstraint=eastwest;top=0;left=0;right=0;bottom=1;" parent="db0l6RPyGzE5sk9retDZ-1" vertex="1">
          <mxGeometry y="30" width="180" height="30" as="geometry" />
        </mxCell>
        <mxCell id="db0l6RPyGzE5sk9retDZ-3" value="PK" style="shape=partialRectangle;connectable=0;fillColor=none;top=0;left=0;bottom=0;right=0;fontStyle=1;overflow=hidden;whiteSpace=wrap;html=1;" parent="db0l6RPyGzE5sk9retDZ-2" vertex="1">
          <mxGeometry width="30" height="30" as="geometry">
            <mxRectangle width="30" height="30" as="alternateBounds" />
          </mxGeometry>
        </mxCell>
        <mxCell id="db0l6RPyGzE5sk9retDZ-4" value="회원ID" style="shape=partialRectangle;connectable=0;fillColor=none;top=0;left=0;bottom=0;right=0;align=left;spacingLeft=6;fontStyle=5;overflow=hidden;whiteSpace=wrap;html=1;" parent="db0l6RPyGzE5sk9retDZ-2" vertex="1">
          <mxGeometry x="30" width="150" height="30" as="geometry">
            <mxRectangle width="150" height="30" as="alternateBounds" />
          </mxGeometry>
        </mxCell>
        <mxCell id="db0l6RPyGzE5sk9retDZ-5" value="" style="shape=tableRow;horizontal=0;startSize=0;swimlaneHead=0;swimlaneBody=0;fillColor=none;collapsible=0;dropTarget=0;points=[[0,0.5],[1,0.5]];portConstraint=eastwest;top=0;left=0;right=0;bottom=0;" parent="db0l6RPyGzE5sk9retDZ-1" vertex="1">
          <mxGeometry y="60" width="180" height="30" as="geometry" />
        </mxCell>
        <mxCell id="db0l6RPyGzE5sk9retDZ-6" value="" style="shape=partialRectangle;connectable=0;fillColor=none;top=0;left=0;bottom=0;right=0;editable=1;overflow=hidden;whiteSpace=wrap;html=1;" parent="db0l6RPyGzE5sk9retDZ-5" vertex="1">
          <mxGeometry width="30" height="30" as="geometry">
            <mxRectangle width="30" height="30" as="alternateBounds" />
          </mxGeometry>
        </mxCell>
        <mxCell id="db0l6RPyGzE5sk9retDZ-7" value="회원PW" style="shape=partialRectangle;connectable=0;fillColor=none;top=0;left=0;bottom=0;right=0;align=left;spacingLeft=6;overflow=hidden;whiteSpace=wrap;html=1;" parent="db0l6RPyGzE5sk9retDZ-5" vertex="1">
          <mxGeometry x="30" width="150" height="30" as="geometry">
            <mxRectangle width="150" height="30" as="alternateBounds" />
          </mxGeometry>
        </mxCell>
        <mxCell id="db0l6RPyGzE5sk9retDZ-8" value="" style="shape=tableRow;horizontal=0;startSize=0;swimlaneHead=0;swimlaneBody=0;fillColor=none;collapsible=0;dropTarget=0;points=[[0,0.5],[1,0.5]];portConstraint=eastwest;top=0;left=0;right=0;bottom=0;" parent="db0l6RPyGzE5sk9retDZ-1" vertex="1">
          <mxGeometry y="90" width="180" height="30" as="geometry" />
        </mxCell>
        <mxCell id="db0l6RPyGzE5sk9retDZ-9" value="" style="shape=partialRectangle;connectable=0;fillColor=none;top=0;left=0;bottom=0;right=0;editable=1;overflow=hidden;whiteSpace=wrap;html=1;" parent="db0l6RPyGzE5sk9retDZ-8" vertex="1">
          <mxGeometry width="30" height="30" as="geometry">
            <mxRectangle width="30" height="30" as="alternateBounds" />
          </mxGeometry>
        </mxCell>
        <mxCell id="db0l6RPyGzE5sk9retDZ-10" value="이름" style="shape=partialRectangle;connectable=0;fillColor=none;top=0;left=0;bottom=0;right=0;align=left;spacingLeft=6;overflow=hidden;whiteSpace=wrap;html=1;" parent="db0l6RPyGzE5sk9retDZ-8" vertex="1">
          <mxGeometry x="30" width="150" height="30" as="geometry">
            <mxRectangle width="150" height="30" as="alternateBounds" />
          </mxGeometry>
        </mxCell>
        <mxCell id="lgf5CqRN4KG7cC2i1rDS-2" value="" style="shape=tableRow;horizontal=0;startSize=0;swimlaneHead=0;swimlaneBody=0;fillColor=none;collapsible=0;dropTarget=0;points=[[0,0.5],[1,0.5]];portConstraint=eastwest;top=0;left=0;right=0;bottom=0;" parent="db0l6RPyGzE5sk9retDZ-1" vertex="1">
          <mxGeometry y="120" width="180" height="30" as="geometry" />
        </mxCell>
        <mxCell id="lgf5CqRN4KG7cC2i1rDS-3" value="FK" style="shape=partialRectangle;connectable=0;fillColor=none;top=0;left=0;bottom=0;right=0;editable=1;overflow=hidden;whiteSpace=wrap;html=1;" parent="lgf5CqRN4KG7cC2i1rDS-2" vertex="1">
          <mxGeometry width="30" height="30" as="geometry">
            <mxRectangle width="30" height="30" as="alternateBounds" />
          </mxGeometry>
        </mxCell>
        <mxCell id="lgf5CqRN4KG7cC2i1rDS-4" value="주소" style="shape=partialRectangle;connectable=0;fillColor=none;top=0;left=0;bottom=0;right=0;align=left;spacingLeft=6;overflow=hidden;whiteSpace=wrap;html=1;" parent="lgf5CqRN4KG7cC2i1rDS-2" vertex="1">
          <mxGeometry x="30" width="150" height="30" as="geometry">
            <mxRectangle width="150" height="30" as="alternateBounds" />
          </mxGeometry>
        </mxCell>
        <mxCell id="JH96xP7tFyDJd9EvLjtM-1" value="주문테이블" style="shape=table;startSize=30;container=1;collapsible=1;childLayout=tableLayout;fixedRows=1;rowLines=0;fontStyle=1;align=center;resizeLast=1;html=1;" parent="1" vertex="1">
          <mxGeometry x="650" y="320" width="180" height="270" as="geometry" />
        </mxCell>
        <mxCell id="JH96xP7tFyDJd9EvLjtM-2" value="" style="shape=tableRow;horizontal=0;startSize=0;swimlaneHead=0;swimlaneBody=0;fillColor=none;collapsible=0;dropTarget=0;points=[[0,0.5],[1,0.5]];portConstraint=eastwest;top=0;left=0;right=0;bottom=1;" parent="JH96xP7tFyDJd9EvLjtM-1" vertex="1">
          <mxGeometry y="30" width="180" height="30" as="geometry" />
        </mxCell>
        <mxCell id="JH96xP7tFyDJd9EvLjtM-3" value="PK" style="shape=partialRectangle;connectable=0;fillColor=none;top=0;left=0;bottom=0;right=0;fontStyle=1;overflow=hidden;whiteSpace=wrap;html=1;" parent="JH96xP7tFyDJd9EvLjtM-2" vertex="1">
          <mxGeometry width="30" height="30" as="geometry">
            <mxRectangle width="30" height="30" as="alternateBounds" />
          </mxGeometry>
        </mxCell>
        <mxCell id="JH96xP7tFyDJd9EvLjtM-4" value="주문ID" style="shape=partialRectangle;connectable=0;fillColor=none;top=0;left=0;bottom=0;right=0;align=left;spacingLeft=6;fontStyle=5;overflow=hidden;whiteSpace=wrap;html=1;" parent="JH96xP7tFyDJd9EvLjtM-2" vertex="1">
          <mxGeometry x="30" width="150" height="30" as="geometry">
            <mxRectangle width="150" height="30" as="alternateBounds" />
          </mxGeometry>
        </mxCell>
        <mxCell id="JH96xP7tFyDJd9EvLjtM-8" value="" style="shape=tableRow;horizontal=0;startSize=0;swimlaneHead=0;swimlaneBody=0;fillColor=none;collapsible=0;dropTarget=0;points=[[0,0.5],[1,0.5]];portConstraint=eastwest;top=0;left=0;right=0;bottom=0;" parent="JH96xP7tFyDJd9EvLjtM-1" vertex="1">
          <mxGeometry y="60" width="180" height="30" as="geometry" />
        </mxCell>
        <mxCell id="JH96xP7tFyDJd9EvLjtM-9" value="FK" style="shape=partialRectangle;connectable=0;fillColor=none;top=0;left=0;bottom=0;right=0;editable=1;overflow=hidden;whiteSpace=wrap;html=1;" parent="JH96xP7tFyDJd9EvLjtM-8" vertex="1">
          <mxGeometry width="30" height="30" as="geometry">
            <mxRectangle width="30" height="30" as="alternateBounds" />
          </mxGeometry>
        </mxCell>
        <mxCell id="JH96xP7tFyDJd9EvLjtM-10" value="회원ID" style="shape=partialRectangle;connectable=0;fillColor=none;top=0;left=0;bottom=0;right=0;align=left;spacingLeft=6;overflow=hidden;whiteSpace=wrap;html=1;" parent="JH96xP7tFyDJd9EvLjtM-8" vertex="1">
          <mxGeometry x="30" width="150" height="30" as="geometry">
            <mxRectangle width="150" height="30" as="alternateBounds" />
          </mxGeometry>
        </mxCell>
        <mxCell id="JH96xP7tFyDJd9EvLjtM-14" value="" style="shape=tableRow;horizontal=0;startSize=0;swimlaneHead=0;swimlaneBody=0;fillColor=none;collapsible=0;dropTarget=0;points=[[0,0.5],[1,0.5]];portConstraint=eastwest;top=0;left=0;right=0;bottom=0;" parent="JH96xP7tFyDJd9EvLjtM-1" vertex="1">
          <mxGeometry y="90" width="180" height="30" as="geometry" />
        </mxCell>
        <mxCell id="JH96xP7tFyDJd9EvLjtM-15" value="FK" style="shape=partialRectangle;connectable=0;fillColor=none;top=0;left=0;bottom=0;right=0;editable=1;overflow=hidden;whiteSpace=wrap;html=1;" parent="JH96xP7tFyDJd9EvLjtM-14" vertex="1">
          <mxGeometry width="30" height="30" as="geometry">
            <mxRectangle width="30" height="30" as="alternateBounds" />
          </mxGeometry>
        </mxCell>
        <mxCell id="JH96xP7tFyDJd9EvLjtM-16" value="상품코드" style="shape=partialRectangle;connectable=0;fillColor=none;top=0;left=0;bottom=0;right=0;align=left;spacingLeft=6;overflow=hidden;whiteSpace=wrap;html=1;" parent="JH96xP7tFyDJd9EvLjtM-14" vertex="1">
          <mxGeometry x="30" width="150" height="30" as="geometry">
            <mxRectangle width="150" height="30" as="alternateBounds" />
          </mxGeometry>
        </mxCell>
        <mxCell id="JH96xP7tFyDJd9EvLjtM-5" value="" style="shape=tableRow;horizontal=0;startSize=0;swimlaneHead=0;swimlaneBody=0;fillColor=none;collapsible=0;dropTarget=0;points=[[0,0.5],[1,0.5]];portConstraint=eastwest;top=0;left=0;right=0;bottom=0;" parent="JH96xP7tFyDJd9EvLjtM-1" vertex="1">
          <mxGeometry y="120" width="180" height="30" as="geometry" />
        </mxCell>
        <mxCell id="JH96xP7tFyDJd9EvLjtM-6" value="" style="shape=partialRectangle;connectable=0;fillColor=none;top=0;left=0;bottom=0;right=0;editable=1;overflow=hidden;whiteSpace=wrap;html=1;" parent="JH96xP7tFyDJd9EvLjtM-5" vertex="1">
          <mxGeometry width="30" height="30" as="geometry">
            <mxRectangle width="30" height="30" as="alternateBounds" />
          </mxGeometry>
        </mxCell>
        <mxCell id="JH96xP7tFyDJd9EvLjtM-7" value="상품명" style="shape=partialRectangle;connectable=0;fillColor=none;top=0;left=0;bottom=0;right=0;align=left;spacingLeft=6;overflow=hidden;whiteSpace=wrap;html=1;" parent="JH96xP7tFyDJd9EvLjtM-5" vertex="1">
          <mxGeometry x="30" width="150" height="30" as="geometry">
            <mxRectangle width="150" height="30" as="alternateBounds" />
          </mxGeometry>
        </mxCell>
        <mxCell id="JH96xP7tFyDJd9EvLjtM-11" value="" style="shape=tableRow;horizontal=0;startSize=0;swimlaneHead=0;swimlaneBody=0;fillColor=none;collapsible=0;dropTarget=0;points=[[0,0.5],[1,0.5]];portConstraint=eastwest;top=0;left=0;right=0;bottom=0;" parent="JH96xP7tFyDJd9EvLjtM-1" vertex="1">
          <mxGeometry y="150" width="180" height="30" as="geometry" />
        </mxCell>
        <mxCell id="JH96xP7tFyDJd9EvLjtM-12" value="" style="shape=partialRectangle;connectable=0;fillColor=none;top=0;left=0;bottom=0;right=0;editable=1;overflow=hidden;whiteSpace=wrap;html=1;" parent="JH96xP7tFyDJd9EvLjtM-11" vertex="1">
          <mxGeometry width="30" height="30" as="geometry">
            <mxRectangle width="30" height="30" as="alternateBounds" />
          </mxGeometry>
        </mxCell>
        <mxCell id="JH96xP7tFyDJd9EvLjtM-13" value="주소" style="shape=partialRectangle;connectable=0;fillColor=none;top=0;left=0;bottom=0;right=0;align=left;spacingLeft=6;overflow=hidden;whiteSpace=wrap;html=1;" parent="JH96xP7tFyDJd9EvLjtM-11" vertex="1">
          <mxGeometry x="30" width="150" height="30" as="geometry">
            <mxRectangle width="150" height="30" as="alternateBounds" />
          </mxGeometry>
        </mxCell>
        <mxCell id="CKMJnLtMbz_CMOTztvP--1" value="" style="shape=tableRow;horizontal=0;startSize=0;swimlaneHead=0;swimlaneBody=0;fillColor=none;collapsible=0;dropTarget=0;points=[[0,0.5],[1,0.5]];portConstraint=eastwest;top=0;left=0;right=0;bottom=0;" parent="JH96xP7tFyDJd9EvLjtM-1" vertex="1">
          <mxGeometry y="180" width="180" height="30" as="geometry" />
        </mxCell>
        <mxCell id="CKMJnLtMbz_CMOTztvP--2" value="" style="shape=partialRectangle;connectable=0;fillColor=none;top=0;left=0;bottom=0;right=0;editable=1;overflow=hidden;whiteSpace=wrap;html=1;" parent="CKMJnLtMbz_CMOTztvP--1" vertex="1">
          <mxGeometry width="30" height="30" as="geometry">
            <mxRectangle width="30" height="30" as="alternateBounds" />
          </mxGeometry>
        </mxCell>
        <mxCell id="CKMJnLtMbz_CMOTztvP--3" value="주문수량" style="shape=partialRectangle;connectable=0;fillColor=none;top=0;left=0;bottom=0;right=0;align=left;spacingLeft=6;overflow=hidden;whiteSpace=wrap;html=1;" parent="CKMJnLtMbz_CMOTztvP--1" vertex="1">
          <mxGeometry x="30" width="150" height="30" as="geometry">
            <mxRectangle width="150" height="30" as="alternateBounds" />
          </mxGeometry>
        </mxCell>
        <mxCell id="CKMJnLtMbz_CMOTztvP--4" value="" style="shape=tableRow;horizontal=0;startSize=0;swimlaneHead=0;swimlaneBody=0;fillColor=none;collapsible=0;dropTarget=0;points=[[0,0.5],[1,0.5]];portConstraint=eastwest;top=0;left=0;right=0;bottom=0;" parent="JH96xP7tFyDJd9EvLjtM-1" vertex="1">
          <mxGeometry y="210" width="180" height="30" as="geometry" />
        </mxCell>
        <mxCell id="CKMJnLtMbz_CMOTztvP--5" value="" style="shape=partialRectangle;connectable=0;fillColor=none;top=0;left=0;bottom=0;right=0;editable=1;overflow=hidden;whiteSpace=wrap;html=1;" parent="CKMJnLtMbz_CMOTztvP--4" vertex="1">
          <mxGeometry width="30" height="30" as="geometry">
            <mxRectangle width="30" height="30" as="alternateBounds" />
          </mxGeometry>
        </mxCell>
        <mxCell id="CKMJnLtMbz_CMOTztvP--6" value="주문날짜" style="shape=partialRectangle;connectable=0;fillColor=none;top=0;left=0;bottom=0;right=0;align=left;spacingLeft=6;overflow=hidden;whiteSpace=wrap;html=1;" parent="CKMJnLtMbz_CMOTztvP--4" vertex="1">
          <mxGeometry x="30" width="150" height="30" as="geometry">
            <mxRectangle width="150" height="30" as="alternateBounds" />
          </mxGeometry>
        </mxCell>
        <mxCell id="CKMJnLtMbz_CMOTztvP--7" value="" style="shape=tableRow;horizontal=0;startSize=0;swimlaneHead=0;swimlaneBody=0;fillColor=none;collapsible=0;dropTarget=0;points=[[0,0.5],[1,0.5]];portConstraint=eastwest;top=0;left=0;right=0;bottom=0;" parent="JH96xP7tFyDJd9EvLjtM-1" vertex="1">
          <mxGeometry y="240" width="180" height="30" as="geometry" />
        </mxCell>
        <mxCell id="CKMJnLtMbz_CMOTztvP--8" value="" style="shape=partialRectangle;connectable=0;fillColor=none;top=0;left=0;bottom=0;right=0;editable=1;overflow=hidden;whiteSpace=wrap;html=1;" parent="CKMJnLtMbz_CMOTztvP--7" vertex="1">
          <mxGeometry width="30" height="30" as="geometry">
            <mxRectangle width="30" height="30" as="alternateBounds" />
          </mxGeometry>
        </mxCell>
        <mxCell id="CKMJnLtMbz_CMOTztvP--9" value="가격" style="shape=partialRectangle;connectable=0;fillColor=none;top=0;left=0;bottom=0;right=0;align=left;spacingLeft=6;overflow=hidden;whiteSpace=wrap;html=1;" parent="CKMJnLtMbz_CMOTztvP--7" vertex="1">
          <mxGeometry x="30" width="150" height="30" as="geometry">
            <mxRectangle width="150" height="30" as="alternateBounds" />
          </mxGeometry>
        </mxCell>
        <mxCell id="JH96xP7tFyDJd9EvLjtM-17" value="" style="edgeStyle=entityRelationEdgeStyle;fontSize=12;html=1;endArrow=ERzeroToMany;endFill=1;rounded=0;exitX=1;exitY=0.5;exitDx=0;exitDy=0;dashed=1;entryX=0.974;entryY=1.173;entryDx=0;entryDy=0;entryPerimeter=0;" parent="1" source="db0l6RPyGzE5sk9retDZ-2" target="OossNViT_VZEC6Ji97gS-3" edge="1">
          <mxGeometry width="100" height="100" relative="1" as="geometry">
            <mxPoint x="690" y="460" as="sourcePoint" />
            <mxPoint x="590" y="365" as="targetPoint" />
          </mxGeometry>
        </mxCell>
        <mxCell id="OossNViT_VZEC6Ji97gS-2" value="1" style="text;strokeColor=none;fillColor=none;spacingLeft=4;spacingRight=4;overflow=hidden;rotatable=0;points=[[0,0.5],[1,0.5]];portConstraint=eastwest;fontSize=12;whiteSpace=wrap;html=1;" parent="1" vertex="1">
          <mxGeometry x="240" y="450" width="20" height="30" as="geometry" />
        </mxCell>
        <mxCell id="OossNViT_VZEC6Ji97gS-3" value="N" style="text;strokeColor=none;fillColor=none;spacingLeft=4;spacingRight=4;overflow=hidden;rotatable=0;points=[[0,0.5],[1,0.5]];portConstraint=eastwest;fontSize=12;whiteSpace=wrap;html=1;" parent="1" vertex="1">
          <mxGeometry x="630" y="330" width="20" height="30" as="geometry" />
        </mxCell>
        <mxCell id="TaDt7rBpf2jQxLARalI3-1" value="배송지테이블" style="shape=table;startSize=30;container=1;collapsible=1;childLayout=tableLayout;fixedRows=1;rowLines=0;fontStyle=1;align=center;resizeLast=1;html=1;" parent="1" vertex="1">
          <mxGeometry x="300" y="660" width="230" height="120" as="geometry" />
        </mxCell>
        <mxCell id="TaDt7rBpf2jQxLARalI3-2" value="" style="shape=tableRow;horizontal=0;startSize=0;swimlaneHead=0;swimlaneBody=0;fillColor=none;collapsible=0;dropTarget=0;points=[[0,0.5],[1,0.5]];portConstraint=eastwest;top=0;left=0;right=0;bottom=1;" parent="TaDt7rBpf2jQxLARalI3-1" vertex="1">
          <mxGeometry y="30" width="230" height="30" as="geometry" />
        </mxCell>
        <mxCell id="TaDt7rBpf2jQxLARalI3-3" value="PK" style="shape=partialRectangle;connectable=0;fillColor=none;top=0;left=0;bottom=0;right=0;fontStyle=1;overflow=hidden;whiteSpace=wrap;html=1;" parent="TaDt7rBpf2jQxLARalI3-2" vertex="1">
          <mxGeometry width="50" height="30" as="geometry">
            <mxRectangle width="50" height="30" as="alternateBounds" />
          </mxGeometry>
        </mxCell>
        <mxCell id="TaDt7rBpf2jQxLARalI3-4" value="주소" style="shape=partialRectangle;connectable=0;fillColor=none;top=0;left=0;bottom=0;right=0;align=left;spacingLeft=6;fontStyle=5;overflow=hidden;whiteSpace=wrap;html=1;" parent="TaDt7rBpf2jQxLARalI3-2" vertex="1">
          <mxGeometry x="50" width="180" height="30" as="geometry">
            <mxRectangle width="180" height="30" as="alternateBounds" />
          </mxGeometry>
        </mxCell>
        <mxCell id="TaDt7rBpf2jQxLARalI3-5" value="" style="shape=tableRow;horizontal=0;startSize=0;swimlaneHead=0;swimlaneBody=0;fillColor=none;collapsible=0;dropTarget=0;points=[[0,0.5],[1,0.5]];portConstraint=eastwest;top=0;left=0;right=0;bottom=0;" parent="TaDt7rBpf2jQxLARalI3-1" vertex="1">
          <mxGeometry y="60" width="230" height="30" as="geometry" />
        </mxCell>
        <mxCell id="TaDt7rBpf2jQxLARalI3-6" value="FK" style="shape=partialRectangle;connectable=0;fillColor=none;top=0;left=0;bottom=0;right=0;editable=1;overflow=hidden;whiteSpace=wrap;html=1;" parent="TaDt7rBpf2jQxLARalI3-5" vertex="1">
          <mxGeometry width="50" height="30" as="geometry">
            <mxRectangle width="50" height="30" as="alternateBounds" />
          </mxGeometry>
        </mxCell>
        <mxCell id="TaDt7rBpf2jQxLARalI3-7" value="회원ID" style="shape=partialRectangle;connectable=0;fillColor=none;top=0;left=0;bottom=0;right=0;align=left;spacingLeft=6;overflow=hidden;whiteSpace=wrap;html=1;" parent="TaDt7rBpf2jQxLARalI3-5" vertex="1">
          <mxGeometry x="50" width="180" height="30" as="geometry">
            <mxRectangle width="180" height="30" as="alternateBounds" />
          </mxGeometry>
        </mxCell>
        <mxCell id="TaDt7rBpf2jQxLARalI3-11" value="" style="shape=tableRow;horizontal=0;startSize=0;swimlaneHead=0;swimlaneBody=0;fillColor=none;collapsible=0;dropTarget=0;points=[[0,0.5],[1,0.5]];portConstraint=eastwest;top=0;left=0;right=0;bottom=0;" parent="TaDt7rBpf2jQxLARalI3-1" vertex="1">
          <mxGeometry y="90" width="230" height="30" as="geometry" />
        </mxCell>
        <mxCell id="TaDt7rBpf2jQxLARalI3-12" value="PK/FK" style="shape=partialRectangle;connectable=0;fillColor=none;top=0;left=0;bottom=0;right=0;editable=1;overflow=hidden;whiteSpace=wrap;html=1;" parent="TaDt7rBpf2jQxLARalI3-11" vertex="1">
          <mxGeometry width="50" height="30" as="geometry">
            <mxRectangle width="50" height="30" as="alternateBounds" />
          </mxGeometry>
        </mxCell>
        <mxCell id="TaDt7rBpf2jQxLARalI3-13" value="주문ID" style="shape=partialRectangle;connectable=0;fillColor=none;top=0;left=0;bottom=0;right=0;align=left;spacingLeft=6;overflow=hidden;whiteSpace=wrap;html=1;" parent="TaDt7rBpf2jQxLARalI3-11" vertex="1">
          <mxGeometry x="50" width="180" height="30" as="geometry">
            <mxRectangle width="180" height="30" as="alternateBounds" />
          </mxGeometry>
        </mxCell>
        <mxCell id="lgf5CqRN4KG7cC2i1rDS-1" value="" style="edgeStyle=entityRelationEdgeStyle;fontSize=12;html=1;endArrow=ERone;endFill=1;rounded=0;entryX=0;entryY=0.5;entryDx=0;entryDy=0;exitX=1;exitY=0.5;exitDx=0;exitDy=0;" parent="1" source="lgf5CqRN4KG7cC2i1rDS-2" target="TaDt7rBpf2jQxLARalI3-2" edge="1">
          <mxGeometry width="100" height="100" relative="1" as="geometry">
            <mxPoint x="350" y="460" as="sourcePoint" />
            <mxPoint x="500" y="430" as="targetPoint" />
          </mxGeometry>
        </mxCell>
        <mxCell id="lgf5CqRN4KG7cC2i1rDS-5" value="1" style="text;strokeColor=none;fillColor=none;spacingLeft=4;spacingRight=4;overflow=hidden;rotatable=0;points=[[0,0.5],[1,0.5]];portConstraint=eastwest;fontSize=12;whiteSpace=wrap;html=1;" parent="1" vertex="1">
          <mxGeometry x="280" y="670" width="20" height="30" as="geometry" />
        </mxCell>
        <mxCell id="lgf5CqRN4KG7cC2i1rDS-6" value="" style="edgeStyle=entityRelationEdgeStyle;fontSize=12;html=1;endArrow=ERoneToMany;startArrow=ERmandOne;rounded=0;exitX=1;exitY=0.5;exitDx=0;exitDy=0;entryX=0;entryY=0.5;entryDx=0;entryDy=0;" parent="1" source="TaDt7rBpf2jQxLARalI3-11" target="JH96xP7tFyDJd9EvLjtM-11" edge="1">
          <mxGeometry width="100" height="100" relative="1" as="geometry">
            <mxPoint x="400" y="530" as="sourcePoint" />
            <mxPoint x="500" y="430" as="targetPoint" />
          </mxGeometry>
        </mxCell>
        <mxCell id="lgf5CqRN4KG7cC2i1rDS-7" value="1" style="text;strokeColor=none;fillColor=none;spacingLeft=4;spacingRight=4;overflow=hidden;rotatable=0;points=[[0,0.5],[1,0.5]];portConstraint=eastwest;fontSize=12;whiteSpace=wrap;html=1;" parent="1" vertex="1">
          <mxGeometry x="540" y="730" width="20" height="30" as="geometry" />
        </mxCell>
        <mxCell id="lgf5CqRN4KG7cC2i1rDS-8" value="N" style="text;strokeColor=none;fillColor=none;spacingLeft=4;spacingRight=4;overflow=hidden;rotatable=0;points=[[0,0.5],[1,0.5]];portConstraint=eastwest;fontSize=12;whiteSpace=wrap;html=1;" parent="1" vertex="1">
          <mxGeometry x="630" y="420" width="20" height="30" as="geometry" />
        </mxCell>
        <mxCell id="lgf5CqRN4KG7cC2i1rDS-9" value="상품테이블" style="shape=table;startSize=30;container=1;collapsible=1;childLayout=tableLayout;fixedRows=1;rowLines=0;fontStyle=1;align=center;resizeLast=1;html=1;" parent="1" vertex="1">
          <mxGeometry x="990" y="440" width="180" height="120" as="geometry" />
        </mxCell>
        <mxCell id="lgf5CqRN4KG7cC2i1rDS-10" value="" style="shape=tableRow;horizontal=0;startSize=0;swimlaneHead=0;swimlaneBody=0;fillColor=none;collapsible=0;dropTarget=0;points=[[0,0.5],[1,0.5]];portConstraint=eastwest;top=0;left=0;right=0;bottom=1;" parent="lgf5CqRN4KG7cC2i1rDS-9" vertex="1">
          <mxGeometry y="30" width="180" height="30" as="geometry" />
        </mxCell>
        <mxCell id="lgf5CqRN4KG7cC2i1rDS-11" value="PK" style="shape=partialRectangle;connectable=0;fillColor=none;top=0;left=0;bottom=0;right=0;fontStyle=1;overflow=hidden;whiteSpace=wrap;html=1;" parent="lgf5CqRN4KG7cC2i1rDS-10" vertex="1">
          <mxGeometry width="30" height="30" as="geometry">
            <mxRectangle width="30" height="30" as="alternateBounds" />
          </mxGeometry>
        </mxCell>
        <mxCell id="lgf5CqRN4KG7cC2i1rDS-12" value="상품코드" style="shape=partialRectangle;connectable=0;fillColor=none;top=0;left=0;bottom=0;right=0;align=left;spacingLeft=6;fontStyle=5;overflow=hidden;whiteSpace=wrap;html=1;" parent="lgf5CqRN4KG7cC2i1rDS-10" vertex="1">
          <mxGeometry x="30" width="150" height="30" as="geometry">
            <mxRectangle width="150" height="30" as="alternateBounds" />
          </mxGeometry>
        </mxCell>
        <mxCell id="CKMJnLtMbz_CMOTztvP--10" value="" style="shape=tableRow;horizontal=0;startSize=0;swimlaneHead=0;swimlaneBody=0;fillColor=none;collapsible=0;dropTarget=0;points=[[0,0.5],[1,0.5]];portConstraint=eastwest;top=0;left=0;right=0;bottom=1;" parent="lgf5CqRN4KG7cC2i1rDS-9" vertex="1">
          <mxGeometry y="60" width="180" height="30" as="geometry" />
        </mxCell>
        <mxCell id="CKMJnLtMbz_CMOTztvP--11" value="PK" style="shape=partialRectangle;connectable=0;fillColor=none;top=0;left=0;bottom=0;right=0;fontStyle=1;overflow=hidden;whiteSpace=wrap;html=1;" parent="CKMJnLtMbz_CMOTztvP--10" vertex="1">
          <mxGeometry width="30" height="30" as="geometry">
            <mxRectangle width="30" height="30" as="alternateBounds" />
          </mxGeometry>
        </mxCell>
        <mxCell id="CKMJnLtMbz_CMOTztvP--12" value="상품명" style="shape=partialRectangle;connectable=0;fillColor=none;top=0;left=0;bottom=0;right=0;align=left;spacingLeft=6;fontStyle=5;overflow=hidden;whiteSpace=wrap;html=1;" parent="CKMJnLtMbz_CMOTztvP--10" vertex="1">
          <mxGeometry x="30" width="150" height="30" as="geometry">
            <mxRectangle width="150" height="30" as="alternateBounds" />
          </mxGeometry>
        </mxCell>
        <mxCell id="CKMJnLtMbz_CMOTztvP--13" value="" style="shape=tableRow;horizontal=0;startSize=0;swimlaneHead=0;swimlaneBody=0;fillColor=none;collapsible=0;dropTarget=0;points=[[0,0.5],[1,0.5]];portConstraint=eastwest;top=0;left=0;right=0;bottom=1;" parent="lgf5CqRN4KG7cC2i1rDS-9" vertex="1">
          <mxGeometry y="90" width="180" height="30" as="geometry" />
        </mxCell>
        <mxCell id="CKMJnLtMbz_CMOTztvP--14" value="" style="shape=partialRectangle;connectable=0;fillColor=none;top=0;left=0;bottom=0;right=0;fontStyle=1;overflow=hidden;whiteSpace=wrap;html=1;" parent="CKMJnLtMbz_CMOTztvP--13" vertex="1">
          <mxGeometry width="30" height="30" as="geometry">
            <mxRectangle width="30" height="30" as="alternateBounds" />
          </mxGeometry>
        </mxCell>
        <mxCell id="CKMJnLtMbz_CMOTztvP--15" value="상품제고" style="shape=partialRectangle;connectable=0;fillColor=none;top=0;left=0;bottom=0;right=0;align=left;spacingLeft=6;fontStyle=5;overflow=hidden;whiteSpace=wrap;html=1;" parent="CKMJnLtMbz_CMOTztvP--13" vertex="1">
          <mxGeometry x="30" width="150" height="30" as="geometry">
            <mxRectangle width="150" height="30" as="alternateBounds" />
          </mxGeometry>
        </mxCell>
        <mxCell id="lgf5CqRN4KG7cC2i1rDS-25" value="" style="edgeStyle=entityRelationEdgeStyle;fontSize=12;html=1;endArrow=ERmandOne;startArrow=ERmandOne;rounded=0;exitX=1;exitY=0.5;exitDx=0;exitDy=0;entryX=0;entryY=0.5;entryDx=0;entryDy=0;dashed=1;" parent="1" source="JH96xP7tFyDJd9EvLjtM-14" target="lgf5CqRN4KG7cC2i1rDS-10" edge="1">
          <mxGeometry width="100" height="100" relative="1" as="geometry">
            <mxPoint x="640" y="410" as="sourcePoint" />
            <mxPoint x="740" y="310" as="targetPoint" />
          </mxGeometry>
        </mxCell>
        <mxCell id="3hNbno8-rgV7ZxOItQmo-2" value="FK" style="shape=partialRectangle;connectable=0;fillColor=none;top=0;left=0;bottom=0;right=0;editable=1;overflow=hidden;whiteSpace=wrap;html=1;" parent="1" vertex="1">
          <mxGeometry x="640" y="470" width="50" height="30" as="geometry">
            <mxRectangle width="50" height="30" as="alternateBounds" />
          </mxGeometry>
        </mxCell>
        <mxCell id="CKMJnLtMbz_CMOTztvP--16" value="FK" style="shape=partialRectangle;connectable=0;fillColor=none;top=0;left=0;bottom=0;right=0;editable=1;overflow=hidden;whiteSpace=wrap;html=1;" parent="1" vertex="1">
          <mxGeometry x="650" y="440" width="30" height="30" as="geometry">
            <mxRectangle width="30" height="30" as="alternateBounds" />
          </mxGeometry>
        </mxCell>
      </root>
    </mxGraphModel>
  </diagram>
  <diagram id="MMZHBnZY13Mn0T1EBWd8" name="ClassDiagram">
    <mxGraphModel dx="1259" dy="627" grid="1" gridSize="10" guides="1" tooltips="1" connect="1" arrows="1" fold="1" page="1" pageScale="1" pageWidth="413" pageHeight="583" math="0" shadow="0">
      <root>
        <mxCell id="0" />
        <mxCell id="1" parent="0" />
        <mxCell id="8fnRXmK03sr4c1VSTvOy-1" value="&lt;p style=&quot;margin:0px;margin-top:4px;text-align:center;&quot;&gt;&lt;b&gt;AddrDto&lt;/b&gt;&lt;/p&gt;&lt;hr size=&quot;1&quot;&gt;&lt;p style=&quot;margin:0px;margin-left:4px;&quot;&gt;addr : String&lt;/p&gt;&lt;p style=&quot;margin:0px;margin-left:4px;&quot;&gt;member_id : String&lt;/p&gt;&lt;p style=&quot;margin:0px;margin-left:4px;&quot;&gt;order_id : String&lt;/p&gt;&lt;p style=&quot;margin:0px;margin-left:4px;&quot;&gt;&lt;br&gt;&lt;/p&gt;&lt;hr size=&quot;1&quot;&gt;&lt;p style=&quot;margin:0px;margin-left:4px;&quot;&gt;+ method(): Type&lt;/p&gt;" style="verticalAlign=top;align=left;overflow=fill;fontSize=12;fontFamily=Helvetica;html=1;whiteSpace=wrap;" parent="1" vertex="1">
          <mxGeometry x="300" y="98" width="160" height="130" as="geometry" />
        </mxCell>
        <mxCell id="nAuH0qntw6BaGGrjXaTb-1" value="&lt;p style=&quot;margin:0px;margin-top:4px;text-align:center;&quot;&gt;&lt;b&gt;회원 정보 저장 Class&lt;/b&gt;&lt;/p&gt;&lt;hr size=&quot;1&quot;&gt;&lt;p style=&quot;margin:0px;margin-left:4px;&quot;&gt;id&lt;span style=&quot;white-space: pre;&quot;&gt;&#x9;&lt;/span&gt;: String&lt;/p&gt;&lt;p style=&quot;margin:0px;margin-left:4px;&quot;&gt;pw&lt;span style=&quot;white-space: pre;&quot;&gt;&#x9;&lt;/span&gt;: String&lt;/p&gt;&lt;p style=&quot;margin:0px;margin-left:4px;&quot;&gt;name : String&lt;/p&gt;&lt;p style=&quot;margin:0px;margin-left:4px;&quot;&gt;adr_addr: String&lt;/p&gt;&lt;hr size=&quot;1&quot;&gt;&lt;p style=&quot;margin:0px;margin-left:4px;&quot;&gt;+ method(): Type&lt;/p&gt;" style="verticalAlign=top;align=left;overflow=fill;fontSize=12;fontFamily=Helvetica;html=1;whiteSpace=wrap;" parent="1" vertex="1">
          <mxGeometry x="20" y="100" width="160" height="128" as="geometry" />
        </mxCell>
        <mxCell id="4ZP1TeSLgxTIZ8o0bTkh-1" value="&lt;p style=&quot;margin:0px;margin-top:4px;text-align:center;&quot;&gt;&lt;b&gt;상품 정보 저장 Class&lt;/b&gt;&lt;/p&gt;&lt;hr size=&quot;1&quot;&gt;&lt;p style=&quot;margin:0px;margin-left:4px;&quot;&gt;product_code : int&lt;/p&gt;&lt;p style=&quot;margin:0px;margin-left:4px;&quot;&gt;product_name : String&lt;/p&gt;&lt;p style=&quot;margin:0px;margin-left:4px;&quot;&gt;amount : int&lt;/p&gt;&lt;hr size=&quot;1&quot;&gt;&lt;p style=&quot;margin:0px;margin-left:4px;&quot;&gt;+ method(): Type&lt;/p&gt;" style="verticalAlign=top;align=left;overflow=fill;fontSize=12;fontFamily=Helvetica;html=1;whiteSpace=wrap;" parent="1" vertex="1">
          <mxGeometry x="820" y="98" width="160" height="122" as="geometry" />
        </mxCell>
        <mxCell id="4ZP1TeSLgxTIZ8o0bTkh-2" value="&lt;p style=&quot;margin:0px;margin-top:4px;text-align:center;&quot;&gt;&lt;b&gt;OrderDto&lt;/b&gt;&lt;/p&gt;&lt;hr size=&quot;1&quot;&gt;&lt;p style=&quot;margin:0px;margin-left:4px;&quot;&gt;order_id : String&amp;nbsp;&lt;/p&gt;&lt;p style=&quot;margin:0px;margin-left:4px;&quot;&gt;member_id : String&lt;/p&gt;&lt;p style=&quot;margin:0px;margin-left:4px;&quot;&gt;product_code : int&lt;/p&gt;&lt;p style=&quot;margin:0px;margin-left:4px;&quot;&gt;product_name : String&lt;/p&gt;&lt;p style=&quot;margin:0px;margin-left:4px;&quot;&gt;adr_addr : String&lt;/p&gt;&lt;p style=&quot;margin:0px;margin-left:4px;&quot;&gt;odr_amount : int&lt;/p&gt;&lt;p style=&quot;margin:0px;margin-left:4px;&quot;&gt;odr_date : date&lt;/p&gt;&lt;p style=&quot;margin:0px;margin-left:4px;&quot;&gt;price : int&lt;/p&gt;&lt;hr size=&quot;1&quot;&gt;&lt;p style=&quot;margin:0px;margin-left:4px;&quot;&gt;+ method(): Type&lt;/p&gt;" style="verticalAlign=top;align=left;overflow=fill;fontSize=12;fontFamily=Helvetica;html=1;whiteSpace=wrap;" parent="1" vertex="1">
          <mxGeometry x="560" y="100" width="160" height="240" as="geometry" />
        </mxCell>
        <mxCell id="ETU094StlSHiabySadN4-1" value="OrderDto" style="text;html=1;align=center;verticalAlign=middle;resizable=0;points=[];autosize=1;strokeColor=none;fillColor=none;" parent="1" vertex="1">
          <mxGeometry x="560" y="60" width="70" height="30" as="geometry" />
        </mxCell>
        <mxCell id="ETU094StlSHiabySadN4-2" value="AddrDto" style="text;html=1;align=center;verticalAlign=middle;resizable=0;points=[];autosize=1;strokeColor=none;fillColor=none;" parent="1" vertex="1">
          <mxGeometry x="300" y="60" width="70" height="30" as="geometry" />
        </mxCell>
        <mxCell id="ETU094StlSHiabySadN4-4" value="ProdDto" style="text;html=1;align=center;verticalAlign=middle;resizable=0;points=[];autosize=1;strokeColor=none;fillColor=none;" parent="1" vertex="1">
          <mxGeometry x="826" y="60" width="70" height="30" as="geometry" />
        </mxCell>
        <mxCell id="ETU094StlSHiabySadN4-5" value="MembDto" style="text;html=1;align=center;verticalAlign=middle;resizable=0;points=[];autosize=1;strokeColor=none;fillColor=none;" parent="1" vertex="1">
          <mxGeometry x="25" y="60" width="80" height="30" as="geometry" />
        </mxCell>
        <mxCell id="ETU094StlSHiabySadN4-6" value="Data Transfer Object(DTO)" style="text;html=1;align=center;verticalAlign=middle;resizable=0;points=[];autosize=1;strokeColor=none;fillColor=none;" parent="1" vertex="1">
          <mxGeometry x="20" y="38" width="170" height="30" as="geometry" />
        </mxCell>
        <mxCell id="ETU094StlSHiabySadN4-7" value="Data Access Object(DAO)" style="text;html=1;align=center;verticalAlign=middle;resizable=0;points=[];autosize=1;strokeColor=none;fillColor=none;" parent="1" vertex="1">
          <mxGeometry x="5" y="240" width="160" height="30" as="geometry" />
        </mxCell>
        <mxCell id="l9HmKswWwSfvelRIQ-kn-1" value="&lt;p style=&quot;margin:0px;margin-top:4px;text-align:center;&quot;&gt;&lt;b&gt;MemberDao&lt;/b&gt;&lt;/p&gt;&lt;hr size=&quot;1&quot;&gt;&lt;p style=&quot;border-color: var(--border-color); margin: 0px 0px 0px 4px;&quot;&gt;- id : String&lt;/p&gt;&lt;p style=&quot;border-color: var(--border-color); margin: 0px 0px 0px 4px;&quot;&gt;- pw : String&lt;/p&gt;&lt;p style=&quot;border-color: var(--border-color); margin: 0px 0px 0px 4px;&quot;&gt;- url : String&lt;/p&gt;&lt;p style=&quot;border-color: var(--border-color); margin: 0px 0px 0px 4px;&quot;&gt;- conn : Connection&lt;/p&gt;&lt;p style=&quot;border-color: var(--border-color); margin: 0px 0px 0px 4px;&quot;&gt;- pstmt : PreparedStatement&lt;/p&gt;&lt;p style=&quot;border-color: var(--border-color); margin: 0px 0px 0px 4px;&quot;&gt;- rs : ResultSet&lt;/p&gt;&lt;hr style=&quot;border-color: var(--border-color);&quot; size=&quot;1&quot;&gt;&lt;p style=&quot;border-color: var(--border-color); margin: 0px 0px 0px 4px;&quot;&gt;+ select() : List&amp;lt;MemberDto&amp;gt;&lt;/p&gt;&lt;p style=&quot;border-color: var(--border-color); margin: 0px 0px 0px 4px;&quot;&gt;+ insert(MemberDto dto) : int&lt;/p&gt;&lt;p style=&quot;border-color: var(--border-color); margin: 0px 0px 0px 4px;&quot;&gt;+ update(MemeberDto dto) : int&amp;nbsp;&lt;/p&gt;&lt;p style=&quot;border-color: var(--border-color); margin: 0px 0px 0px 4px;&quot;&gt;+ delete(MemberDto dto) : int&lt;/p&gt;" style="verticalAlign=top;align=left;overflow=fill;fontSize=12;fontFamily=Helvetica;html=1;whiteSpace=wrap;" parent="1" vertex="1">
          <mxGeometry x="25" y="390" width="160" height="230" as="geometry" />
        </mxCell>
        <mxCell id="l9HmKswWwSfvelRIQ-kn-2" value="회원&lt;br&gt;테이블" style="shape=cylinder3;whiteSpace=wrap;html=1;boundedLbl=1;backgroundOutline=1;size=15;" parent="1" vertex="1">
          <mxGeometry x="225" y="430" width="50" height="70" as="geometry" />
        </mxCell>
        <mxCell id="dRN5MbobD9oSYFdVCJVG-1" value="&lt;p style=&quot;border-color: var(--border-color); margin: 4px 0px 0px; text-align: center;&quot;&gt;&lt;b style=&quot;border-color: var(--border-color);&quot;&gt;AddrDao&lt;/b&gt;&lt;/p&gt;&lt;hr style=&quot;border-color: var(--border-color);&quot; size=&quot;1&quot;&gt;&lt;p style=&quot;border-color: var(--border-color); margin: 0px 0px 0px 4px;&quot;&gt;- id : String&lt;/p&gt;&lt;p style=&quot;border-color: var(--border-color); margin: 0px 0px 0px 4px;&quot;&gt;- pw : String&lt;/p&gt;&lt;p style=&quot;border-color: var(--border-color); margin: 0px 0px 0px 4px;&quot;&gt;- url : String&lt;/p&gt;&lt;p style=&quot;border-color: var(--border-color); margin: 0px 0px 0px 4px;&quot;&gt;- conn : Connection&lt;/p&gt;&lt;p style=&quot;border-color: var(--border-color); margin: 0px 0px 0px 4px;&quot;&gt;- pstmt : PreparedStatement&lt;/p&gt;&lt;p style=&quot;border-color: var(--border-color); margin: 0px 0px 0px 4px;&quot;&gt;- rs : ResultSet&lt;/p&gt;&lt;hr style=&quot;border-color: var(--border-color);&quot; size=&quot;1&quot;&gt;&lt;p style=&quot;border-color: var(--border-color); margin: 0px 0px 0px 4px;&quot;&gt;+ select() : List&amp;lt;&lt;b style=&quot;border-color: var(--border-color); text-align: center;&quot;&gt;AddrDto&lt;/b&gt;&amp;gt;&lt;/p&gt;&lt;p style=&quot;border-color: var(--border-color); margin: 0px 0px 0px 4px;&quot;&gt;+ insert(&lt;b style=&quot;border-color: var(--border-color); text-align: center;&quot;&gt;AddrDto&amp;nbsp;&lt;/b&gt;dto) : int&lt;/p&gt;&lt;p style=&quot;border-color: var(--border-color); margin: 0px 0px 0px 4px;&quot;&gt;+ update(&lt;b style=&quot;border-color: var(--border-color); text-align: center;&quot;&gt;AddrDto&amp;nbsp;&lt;/b&gt;dto) : int&amp;nbsp;&lt;/p&gt;&lt;p style=&quot;border-color: var(--border-color); margin: 0px 0px 0px 4px;&quot;&gt;+ delete(&lt;b style=&quot;border-color: var(--border-color); text-align: center;&quot;&gt;AddrDto&amp;nbsp;&lt;/b&gt;dto) : int&lt;/p&gt;" style="verticalAlign=top;align=left;overflow=fill;fontSize=12;fontFamily=Helvetica;html=1;whiteSpace=wrap;" parent="1" vertex="1">
          <mxGeometry x="310" y="390" width="160" height="200" as="geometry" />
        </mxCell>
        <mxCell id="dRN5MbobD9oSYFdVCJVG-2" value="주소&amp;nbsp;&lt;br&gt;테이블" style="shape=cylinder3;whiteSpace=wrap;html=1;boundedLbl=1;backgroundOutline=1;size=15;" parent="1" vertex="1">
          <mxGeometry x="495" y="430" width="50" height="70" as="geometry" />
        </mxCell>
        <mxCell id="dRN5MbobD9oSYFdVCJVG-3" value="&lt;p style=&quot;border-color: var(--border-color); margin: 4px 0px 0px; text-align: center;&quot;&gt;&lt;b style=&quot;border-color: var(--border-color);&quot;&gt;OrderDao&lt;/b&gt;&lt;/p&gt;&lt;hr style=&quot;border-color: var(--border-color);&quot; size=&quot;1&quot;&gt;&lt;p style=&quot;border-color: var(--border-color); margin: 0px 0px 0px 4px;&quot;&gt;- id : String&lt;/p&gt;&lt;p style=&quot;border-color: var(--border-color); margin: 0px 0px 0px 4px;&quot;&gt;- pw : String&lt;/p&gt;&lt;p style=&quot;border-color: var(--border-color); margin: 0px 0px 0px 4px;&quot;&gt;- url : String&lt;/p&gt;&lt;p style=&quot;border-color: var(--border-color); margin: 0px 0px 0px 4px;&quot;&gt;- conn : Connection&lt;/p&gt;&lt;p style=&quot;border-color: var(--border-color); margin: 0px 0px 0px 4px;&quot;&gt;- pstmt : PreparedStatement&lt;/p&gt;&lt;p style=&quot;border-color: var(--border-color); margin: 0px 0px 0px 4px;&quot;&gt;- rs : ResultSet&lt;/p&gt;&lt;hr style=&quot;border-color: var(--border-color);&quot; size=&quot;1&quot;&gt;&lt;p style=&quot;border-color: var(--border-color); margin: 0px 0px 0px 4px;&quot;&gt;+ select() : List&amp;lt;&lt;b style=&quot;border-color: var(--border-color); text-align: center;&quot;&gt;OrderDto&lt;/b&gt;&lt;span style=&quot;background-color: initial;&quot;&gt;&amp;gt;&lt;/span&gt;&lt;/p&gt;&lt;p style=&quot;border-color: var(--border-color); margin: 0px 0px 0px 4px;&quot;&gt;+ insert(&lt;b style=&quot;border-color: var(--border-color); text-align: center;&quot;&gt;OrderDto&amp;nbsp;&lt;/b&gt;&lt;span style=&quot;background-color: initial;&quot;&gt;dto) : int&lt;/span&gt;&lt;/p&gt;&lt;p style=&quot;border-color: var(--border-color); margin: 0px 0px 0px 4px;&quot;&gt;+ update(&lt;b style=&quot;border-color: var(--border-color); text-align: center;&quot;&gt;OrderDto&amp;nbsp;&lt;/b&gt;&lt;span style=&quot;background-color: initial;&quot;&gt;dto) : int&amp;nbsp;&lt;/span&gt;&lt;/p&gt;&lt;p style=&quot;border-color: var(--border-color); margin: 0px 0px 0px 4px;&quot;&gt;+ delete(&lt;b style=&quot;border-color: var(--border-color); text-align: center;&quot;&gt;OrderDto&amp;nbsp;&lt;/b&gt;&lt;span style=&quot;background-color: initial;&quot;&gt;dto) : int&lt;/span&gt;&lt;/p&gt;" style="verticalAlign=top;align=left;overflow=fill;fontSize=12;fontFamily=Helvetica;html=1;whiteSpace=wrap;" parent="1" vertex="1">
          <mxGeometry x="560" y="390" width="180" height="210" as="geometry" />
        </mxCell>
        <mxCell id="dRN5MbobD9oSYFdVCJVG-4" value="주문&amp;nbsp;&lt;br&gt;테이블" style="shape=cylinder3;whiteSpace=wrap;html=1;boundedLbl=1;backgroundOutline=1;size=15;" parent="1" vertex="1">
          <mxGeometry x="750" y="430" width="50" height="70" as="geometry" />
        </mxCell>
        <mxCell id="9m-Y6SZB4GwYZ-t8gkYl-1" value="&lt;p style=&quot;margin:0px;margin-top:4px;text-align:center;&quot;&gt;&lt;b&gt;주문Class&lt;/b&gt;&lt;/p&gt;&lt;hr size=&quot;1&quot;&gt;&lt;p style=&quot;margin:0px;margin-left:4px;&quot;&gt;+ field: Type&lt;/p&gt;&lt;hr size=&quot;1&quot;&gt;&lt;p style=&quot;margin:0px;margin-left:4px;&quot;&gt;주문 처리&lt;/p&gt;" style="verticalAlign=top;align=left;overflow=fill;fontSize=12;fontFamily=Helvetica;html=1;whiteSpace=wrap;" parent="1" vertex="1">
          <mxGeometry x="25" y="690" width="160" height="90" as="geometry" />
        </mxCell>
        <mxCell id="9m-Y6SZB4GwYZ-t8gkYl-2" value="Service" style="text;html=1;align=center;verticalAlign=middle;resizable=0;points=[];autosize=1;strokeColor=none;fillColor=none;" parent="1" vertex="1">
          <mxGeometry x="25" y="660" width="60" height="30" as="geometry" />
        </mxCell>
        <mxCell id="ig5omHtlvhPwNJy12unH-1" value="" style="rounded=0;whiteSpace=wrap;html=1;" parent="1" vertex="1">
          <mxGeometry x="480" y="840" width="670" height="870" as="geometry" />
        </mxCell>
        <mxCell id="ig5omHtlvhPwNJy12unH-2" value="" style="rounded=0;whiteSpace=wrap;html=1;" parent="1" vertex="1">
          <mxGeometry x="910" y="950" width="220" height="660" as="geometry" />
        </mxCell>
        <mxCell id="ig5omHtlvhPwNJy12unH-3" value="View" style="text;html=1;align=center;verticalAlign=middle;resizable=0;points=[];autosize=1;strokeColor=none;fillColor=none;" parent="1" vertex="1">
          <mxGeometry x="20" y="810" width="50" height="30" as="geometry" />
        </mxCell>
        <mxCell id="ig5omHtlvhPwNJy12unH-4" value="" style="rounded=0;whiteSpace=wrap;html=1;" parent="1" vertex="1">
          <mxGeometry x="10" y="840" width="450" height="870" as="geometry" />
        </mxCell>
        <mxCell id="ig5omHtlvhPwNJy12unH-5" value="Controller" style="text;html=1;align=center;verticalAlign=middle;resizable=0;points=[];autosize=1;strokeColor=none;fillColor=none;" parent="1" vertex="1">
          <mxGeometry x="490" y="810" width="80" height="30" as="geometry" />
        </mxCell>
        <mxCell id="ig5omHtlvhPwNJy12unH-6" value="&lt;p style=&quot;margin:0px;margin-top:4px;text-align:center;&quot;&gt;&lt;b&gt;FrontController Class&lt;/b&gt;&lt;/p&gt;&lt;hr size=&quot;1&quot;&gt;&lt;p style=&quot;margin:0px;margin-left:4px;&quot;&gt;+ field: Type&lt;/p&gt;&lt;hr size=&quot;1&quot;&gt;&lt;p style=&quot;margin:0px;margin-left:4px;&quot;&gt;+ method(): Type&lt;/p&gt;" style="verticalAlign=top;align=left;overflow=fill;fontSize=12;fontFamily=Helvetica;html=1;whiteSpace=wrap;" parent="1" vertex="1">
          <mxGeometry x="550" y="1210" width="160" height="130" as="geometry" />
        </mxCell>
        <mxCell id="ig5omHtlvhPwNJy12unH-7" value="" style="rounded=0;whiteSpace=wrap;html=1;" parent="1" vertex="1">
          <mxGeometry x="27.5" y="1080" width="415" height="380" as="geometry" />
        </mxCell>
        <mxCell id="ig5omHtlvhPwNJy12unH-8" value="회원Viewer" style="text;html=1;align=center;verticalAlign=middle;resizable=0;points=[];autosize=1;strokeColor=none;fillColor=none;" parent="1" vertex="1">
          <mxGeometry x="30" y="1040" width="80" height="30" as="geometry" />
        </mxCell>
        <mxCell id="ig5omHtlvhPwNJy12unH-9" value="&lt;p style=&quot;margin:0px;margin-top:4px;text-align:center;&quot;&gt;&lt;b&gt;주문화면 Class&lt;/b&gt;&lt;/p&gt;&lt;hr size=&quot;1&quot;&gt;&lt;p style=&quot;margin:0px;margin-left:4px;&quot;&gt;+ field: Type&lt;/p&gt;&lt;hr size=&quot;1&quot;&gt;&lt;p style=&quot;margin:0px;margin-left:4px;&quot;&gt;+ method(): Type&lt;/p&gt;" style="verticalAlign=top;align=left;overflow=fill;fontSize=12;fontFamily=Helvetica;html=1;whiteSpace=wrap;" parent="1" vertex="1">
          <mxGeometry x="47.5" y="1100" width="155" height="100" as="geometry" />
        </mxCell>
        <mxCell id="ig5omHtlvhPwNJy12unH-10" value="&lt;p style=&quot;margin:0px;margin-top:4px;text-align:center;&quot;&gt;&lt;b&gt;메인 화면 Class&lt;/b&gt;&lt;/p&gt;&lt;hr size=&quot;1&quot;&gt;&lt;p style=&quot;margin:0px;margin-left:4px;&quot;&gt;+ field: Type&lt;/p&gt;&lt;hr size=&quot;1&quot;&gt;&lt;p style=&quot;margin:0px;margin-left:4px;&quot;&gt;+ method(): Type&lt;/p&gt;" style="verticalAlign=top;align=left;overflow=fill;fontSize=12;fontFamily=Helvetica;html=1;whiteSpace=wrap;" parent="1" vertex="1">
          <mxGeometry x="262.5" y="1205" width="160" height="130" as="geometry" />
        </mxCell>
        <mxCell id="ig5omHtlvhPwNJy12unH-11" value="&lt;p style=&quot;margin:0px;margin-top:4px;text-align:center;&quot;&gt;&lt;b&gt;주소 Class&lt;/b&gt;&lt;/p&gt;&lt;hr size=&quot;1&quot;&gt;&lt;p style=&quot;margin:0px;margin-left:4px;&quot;&gt;+ field: Type&lt;/p&gt;&lt;hr size=&quot;1&quot;&gt;&lt;p style=&quot;margin:0px;margin-left:4px;&quot;&gt;+ method(): Type&lt;/p&gt;" style="verticalAlign=top;align=left;overflow=fill;fontSize=12;fontFamily=Helvetica;html=1;whiteSpace=wrap;" parent="1" vertex="1">
          <mxGeometry x="50" y="1310" width="155" height="90" as="geometry" />
        </mxCell>
        <mxCell id="ig5omHtlvhPwNJy12unH-12" value="&lt;p style=&quot;margin:0px;margin-top:4px;text-align:center;&quot;&gt;&lt;b&gt;주문Controller Class&lt;/b&gt;&lt;/p&gt;&lt;hr size=&quot;1&quot;&gt;&lt;p style=&quot;margin:0px;margin-left:4px;&quot;&gt;+ field: Type&lt;/p&gt;&lt;hr size=&quot;1&quot;&gt;&lt;p style=&quot;margin:0px;margin-left:4px;&quot;&gt;1 파라미터 받기(DTO)&lt;/p&gt;&lt;p style=&quot;margin:0px;margin-left:4px;&quot;&gt;2 입력값검증(유효성검사)&lt;/p&gt;&lt;p style=&quot;margin:0px;margin-left:4px;&quot;&gt;3 주문서비스실행&lt;/p&gt;&lt;p style=&quot;margin:0px;margin-left:4px;&quot;&gt;4 View로 이동(결과값전달)&lt;/p&gt;" style="verticalAlign=top;align=left;overflow=fill;fontSize=12;fontFamily=Helvetica;html=1;whiteSpace=wrap;" parent="1" vertex="1">
          <mxGeometry x="950" y="1220" width="160" height="130" as="geometry" />
        </mxCell>
        <mxCell id="ig5omHtlvhPwNJy12unH-13" value="&lt;p style=&quot;margin:0px;margin-top:4px;text-align:center;&quot;&gt;&lt;b&gt;주소Controller Class&lt;/b&gt;&lt;/p&gt;&lt;hr size=&quot;1&quot;&gt;&lt;p style=&quot;margin:0px;margin-left:4px;&quot;&gt;+ field: Type&lt;/p&gt;&lt;hr size=&quot;1&quot;&gt;&lt;p style=&quot;margin:0px;margin-left:4px;&quot;&gt;1 파라미터 받기(DTO)&lt;/p&gt;&lt;p style=&quot;margin:0px;margin-left:4px;&quot;&gt;2 입력값검증(유효성검사)&lt;/p&gt;&lt;p style=&quot;margin:0px;margin-left:4px;&quot;&gt;3 인증서비스실행&lt;/p&gt;&lt;p style=&quot;margin:0px;margin-left:4px;&quot;&gt;4 View로 이동(결과값전달)&lt;/p&gt;" style="verticalAlign=top;align=left;overflow=fill;fontSize=12;fontFamily=Helvetica;html=1;whiteSpace=wrap;" parent="1" vertex="1">
          <mxGeometry x="950" y="1020" width="160" height="130" as="geometry" />
        </mxCell>
        <mxCell id="ig5omHtlvhPwNJy12unH-15" value="" style="endArrow=none;html=1;rounded=0;exitX=1;exitY=0.5;exitDx=0;exitDy=0;" parent="1" source="ig5omHtlvhPwNJy12unH-7" edge="1">
          <mxGeometry width="50" height="50" relative="1" as="geometry">
            <mxPoint x="560" y="1170" as="sourcePoint" />
            <mxPoint x="550" y="1270" as="targetPoint" />
          </mxGeometry>
        </mxCell>
        <mxCell id="ig5omHtlvhPwNJy12unH-16" value="" style="endArrow=none;html=1;rounded=0;exitX=1;exitY=0.5;exitDx=0;exitDy=0;entryX=0;entryY=0.5;entryDx=0;entryDy=0;" parent="1" source="ig5omHtlvhPwNJy12unH-6" target="ig5omHtlvhPwNJy12unH-13" edge="1">
          <mxGeometry width="50" height="50" relative="1" as="geometry">
            <mxPoint x="438" y="1088" as="sourcePoint" />
            <mxPoint x="560" y="1278" as="targetPoint" />
          </mxGeometry>
        </mxCell>
        <mxCell id="ig5omHtlvhPwNJy12unH-17" value="" style="endArrow=none;html=1;rounded=0;exitX=1;exitY=0.5;exitDx=0;exitDy=0;entryX=0;entryY=0.5;entryDx=0;entryDy=0;" parent="1" source="ig5omHtlvhPwNJy12unH-6" target="ig5omHtlvhPwNJy12unH-12" edge="1">
          <mxGeometry width="50" height="50" relative="1" as="geometry">
            <mxPoint x="720" y="1285" as="sourcePoint" />
            <mxPoint x="960" y="1045" as="targetPoint" />
          </mxGeometry>
        </mxCell>
        <mxCell id="ig5omHtlvhPwNJy12unH-19" value="사용자의 모든 요청을 받는 컨트롤러" style="text;html=1;align=center;verticalAlign=middle;resizable=0;points=[];autosize=1;strokeColor=none;fillColor=none;" parent="1" vertex="1">
          <mxGeometry x="540" y="1180" width="220" height="30" as="geometry" />
        </mxCell>
        <mxCell id="ig5omHtlvhPwNJy12unH-20" value="각 서비스와 연결되는 서브 컨트롤러" style="text;html=1;align=center;verticalAlign=middle;resizable=0;points=[];autosize=1;strokeColor=none;fillColor=none;" parent="1" vertex="1">
          <mxGeometry x="900" y="920" width="220" height="30" as="geometry" />
        </mxCell>
        <mxCell id="ig5omHtlvhPwNJy12unH-21" value="API문서화를 통해 어떤 요청이 있을지 정리할것!" style="text;html=1;align=center;verticalAlign=middle;resizable=0;points=[];autosize=1;strokeColor=none;fillColor=none;" parent="1" vertex="1">
          <mxGeometry x="15" y="1680" width="280" height="30" as="geometry" />
        </mxCell>
        <mxCell id="ig5omHtlvhPwNJy12unH-22" value="" style="endArrow=none;html=1;rounded=0;exitX=1;exitY=1;exitDx=0;exitDy=0;" parent="1" source="ig5omHtlvhPwNJy12unH-9" edge="1">
          <mxGeometry width="50" height="50" relative="1" as="geometry">
            <mxPoint x="452.5" y="1280" as="sourcePoint" />
            <mxPoint x="262.5" y="1250" as="targetPoint" />
          </mxGeometry>
        </mxCell>
        <mxCell id="ig5omHtlvhPwNJy12unH-23" value="" style="endArrow=none;html=1;rounded=0;exitX=1;exitY=0;exitDx=0;exitDy=0;" parent="1" source="ig5omHtlvhPwNJy12unH-11" edge="1">
          <mxGeometry width="50" height="50" relative="1" as="geometry">
            <mxPoint x="211.5" y="1170" as="sourcePoint" />
            <mxPoint x="262.5" y="1250" as="targetPoint" />
          </mxGeometry>
        </mxCell>
        <mxCell id="ig5omHtlvhPwNJy12unH-24" value="/odr_read" style="text;html=1;align=center;verticalAlign=middle;resizable=0;points=[];autosize=1;strokeColor=none;fillColor=none;" parent="1" vertex="1">
          <mxGeometry x="212.5" y="1120" width="70" height="30" as="geometry" />
        </mxCell>
        <mxCell id="ig5omHtlvhPwNJy12unH-32" value="/odr_read" style="text;html=1;align=center;verticalAlign=middle;resizable=0;points=[];autosize=1;strokeColor=none;fillColor=none;" parent="1" vertex="1">
          <mxGeometry x="555" y="1340" width="70" height="30" as="geometry" />
        </mxCell>
        <mxCell id="DLb7AneRJwEO6H0vaK5N-1" value="/addr_read" style="text;html=1;align=center;verticalAlign=middle;resizable=0;points=[];autosize=1;strokeColor=none;fillColor=none;" parent="1" vertex="1">
          <mxGeometry x="207.5" y="1350" width="80" height="30" as="geometry" />
        </mxCell>
        <mxCell id="DLb7AneRJwEO6H0vaK5N-2" value="/odr_insert" style="text;html=1;align=center;verticalAlign=middle;resizable=0;points=[];autosize=1;strokeColor=none;fillColor=none;" parent="1" vertex="1">
          <mxGeometry x="550" y="1370" width="80" height="30" as="geometry" />
        </mxCell>
        <mxCell id="DLb7AneRJwEO6H0vaK5N-3" value="/odr_delete" style="text;html=1;align=center;verticalAlign=middle;resizable=0;points=[];autosize=1;strokeColor=none;fillColor=none;" parent="1" vertex="1">
          <mxGeometry x="550" y="1400" width="80" height="30" as="geometry" />
        </mxCell>
        <mxCell id="DLb7AneRJwEO6H0vaK5N-4" value="/addr_insert" style="text;html=1;align=center;verticalAlign=middle;resizable=0;points=[];autosize=1;strokeColor=none;fillColor=none;" parent="1" vertex="1">
          <mxGeometry x="550" y="1430" width="90" height="30" as="geometry" />
        </mxCell>
        <mxCell id="DLb7AneRJwEO6H0vaK5N-5" value="/addr_read" style="text;html=1;align=center;verticalAlign=middle;resizable=0;points=[];autosize=1;strokeColor=none;fillColor=none;" parent="1" vertex="1">
          <mxGeometry x="550" y="1460" width="80" height="30" as="geometry" />
        </mxCell>
        <mxCell id="DLb7AneRJwEO6H0vaK5N-6" value="/addr_update" style="text;html=1;align=center;verticalAlign=middle;resizable=0;points=[];autosize=1;strokeColor=none;fillColor=none;" parent="1" vertex="1">
          <mxGeometry x="550" y="1490" width="90" height="30" as="geometry" />
        </mxCell>
        <mxCell id="DLb7AneRJwEO6H0vaK5N-7" value="/addr_delete" style="text;html=1;align=center;verticalAlign=middle;resizable=0;points=[];autosize=1;strokeColor=none;fillColor=none;" parent="1" vertex="1">
          <mxGeometry x="550" y="1520" width="90" height="30" as="geometry" />
        </mxCell>
        <mxCell id="JFlWRR6q54CSENPv851d-1" value="MembDAO" style="text;html=1;align=center;verticalAlign=middle;resizable=0;points=[];autosize=1;strokeColor=none;fillColor=none;" parent="1" vertex="1">
          <mxGeometry x="25" y="360" width="80" height="30" as="geometry" />
        </mxCell>
        <mxCell id="JFlWRR6q54CSENPv851d-2" value="AddrDAO" style="text;html=1;align=center;verticalAlign=middle;resizable=0;points=[];autosize=1;strokeColor=none;fillColor=none;" parent="1" vertex="1">
          <mxGeometry x="315" y="360" width="70" height="30" as="geometry" />
        </mxCell>
        <mxCell id="JFlWRR6q54CSENPv851d-3" value="OrderDAO" style="text;html=1;align=center;verticalAlign=middle;resizable=0;points=[];autosize=1;strokeColor=none;fillColor=none;" parent="1" vertex="1">
          <mxGeometry x="555" y="360" width="80" height="30" as="geometry" />
        </mxCell>
        <mxCell id="JFlWRR6q54CSENPv851d-4" value="&lt;p style=&quot;border-color: var(--border-color); margin: 4px 0px 0px; text-align: center;&quot;&gt;&lt;b style=&quot;border-color: var(--border-color);&quot;&gt;ProdDao&lt;/b&gt;&lt;/p&gt;&lt;hr style=&quot;border-color: var(--border-color);&quot; size=&quot;1&quot;&gt;&lt;p style=&quot;border-color: var(--border-color); margin: 0px 0px 0px 4px;&quot;&gt;- id : String&lt;/p&gt;&lt;p style=&quot;border-color: var(--border-color); margin: 0px 0px 0px 4px;&quot;&gt;- pw : String&lt;/p&gt;&lt;p style=&quot;border-color: var(--border-color); margin: 0px 0px 0px 4px;&quot;&gt;- url : String&lt;/p&gt;&lt;p style=&quot;border-color: var(--border-color); margin: 0px 0px 0px 4px;&quot;&gt;- conn : Connection&lt;/p&gt;&lt;p style=&quot;border-color: var(--border-color); margin: 0px 0px 0px 4px;&quot;&gt;- pstmt : PreparedStatement&lt;/p&gt;&lt;p style=&quot;border-color: var(--border-color); margin: 0px 0px 0px 4px;&quot;&gt;- rs : ResultSet&lt;/p&gt;&lt;hr style=&quot;border-color: var(--border-color);&quot; size=&quot;1&quot;&gt;&lt;p style=&quot;border-color: var(--border-color); margin: 0px 0px 0px 4px;&quot;&gt;+ select() : List&amp;lt;&lt;b style=&quot;border-color: var(--border-color); text-align: center;&quot;&gt;ProdDto&lt;/b&gt;&amp;gt;&lt;/p&gt;&lt;p style=&quot;border-color: var(--border-color); margin: 0px 0px 0px 4px;&quot;&gt;+ insert(&lt;b style=&quot;border-color: var(--border-color); text-align: center;&quot;&gt;ProdDto&amp;nbsp;&lt;/b&gt;dto) : int&lt;/p&gt;&lt;p style=&quot;border-color: var(--border-color); margin: 0px 0px 0px 4px;&quot;&gt;+ update(&lt;b style=&quot;border-color: var(--border-color); text-align: center;&quot;&gt;ProdDto&amp;nbsp;&lt;/b&gt;dto) : int&amp;nbsp;&lt;/p&gt;&lt;p style=&quot;border-color: var(--border-color); margin: 0px 0px 0px 4px;&quot;&gt;+ delete(&lt;b style=&quot;border-color: var(--border-color); text-align: center;&quot;&gt;ProdDto&amp;nbsp;&lt;/b&gt;dto) : int&lt;/p&gt;" style="verticalAlign=top;align=left;overflow=fill;fontSize=12;fontFamily=Helvetica;html=1;whiteSpace=wrap;" parent="1" vertex="1">
          <mxGeometry x="845" y="390" width="160" height="210" as="geometry" />
        </mxCell>
        <mxCell id="JFlWRR6q54CSENPv851d-5" value="상품&lt;br&gt;테이블" style="shape=cylinder3;whiteSpace=wrap;html=1;boundedLbl=1;backgroundOutline=1;size=15;" parent="1" vertex="1">
          <mxGeometry x="1020" y="435" width="50" height="70" as="geometry" />
        </mxCell>
        <mxCell id="JFlWRR6q54CSENPv851d-6" value="ProdDAO" style="text;html=1;align=center;verticalAlign=middle;resizable=0;points=[];autosize=1;strokeColor=none;fillColor=none;" parent="1" vertex="1">
          <mxGeometry x="845" y="360" width="70" height="30" as="geometry" />
        </mxCell>
      </root>
    </mxGraphModel>
  </diagram>
  <diagram id="Uu52lhwku5CK1Tm4qVdB" name="API문서화">
    <mxGraphModel dx="1259" dy="627" grid="1" gridSize="10" guides="1" tooltips="1" connect="1" arrows="1" fold="1" page="1" pageScale="1" pageWidth="827" pageHeight="1169" math="0" shadow="0">
      <root>
        <mxCell id="0" />
        <mxCell id="1" parent="0" />
        <mxCell id="TnYGjynlbYQ4LanoYu0t-1" value="[도메인]" style="text;html=1;align=center;verticalAlign=middle;resizable=0;points=[];autosize=1;strokeColor=none;fillColor=none;" parent="1" vertex="1">
          <mxGeometry x="50" y="40" width="70" height="30" as="geometry" />
        </mxCell>
        <mxCell id="TnYGjynlbYQ4LanoYu0t-2" value="" style="rounded=0;whiteSpace=wrap;html=1;align=left;" parent="1" vertex="1">
          <mxGeometry x="40" y="120" width="1150" height="410" as="geometry" />
        </mxCell>
        <mxCell id="TnYGjynlbYQ4LanoYu0t-3" value="회원" style="text;html=1;align=center;verticalAlign=middle;resizable=0;points=[];autosize=1;strokeColor=none;fillColor=none;" parent="1" vertex="1">
          <mxGeometry x="50" y="80" width="50" height="30" as="geometry" />
        </mxCell>
        <mxCell id="TnYGjynlbYQ4LanoYu0t-4" value="요청종류" style="text;html=1;align=center;verticalAlign=middle;resizable=0;points=[];autosize=1;strokeColor=none;fillColor=none;" parent="1" vertex="1">
          <mxGeometry x="60" y="140" width="70" height="30" as="geometry" />
        </mxCell>
        <mxCell id="TnYGjynlbYQ4LanoYu0t-5" value="관련서비스" style="text;html=1;align=center;verticalAlign=middle;resizable=0;points=[];autosize=1;strokeColor=none;fillColor=none;" parent="1" vertex="1">
          <mxGeometry x="1050" y="140" width="80" height="30" as="geometry" />
        </mxCell>
        <mxCell id="TnYGjynlbYQ4LanoYu0t-6" value="요청URI" style="text;html=1;align=center;verticalAlign=middle;resizable=0;points=[];autosize=1;strokeColor=none;fillColor=none;" parent="1" vertex="1">
          <mxGeometry x="220" y="140" width="70" height="30" as="geometry" />
        </mxCell>
        <mxCell id="TnYGjynlbYQ4LanoYu0t-7" value="Description" style="text;html=1;align=center;verticalAlign=middle;resizable=0;points=[];autosize=1;strokeColor=none;fillColor=none;" parent="1" vertex="1">
          <mxGeometry x="785" y="140" width="80" height="30" as="geometry" />
        </mxCell>
        <mxCell id="TnYGjynlbYQ4LanoYu0t-8" value="요청파라미터" style="text;html=1;align=center;verticalAlign=middle;resizable=0;points=[];autosize=1;strokeColor=none;fillColor=none;" parent="1" vertex="1">
          <mxGeometry x="380" y="140" width="100" height="30" as="geometry" />
        </mxCell>
        <mxCell id="TnYGjynlbYQ4LanoYu0t-9" value="응답형태" style="text;html=1;align=center;verticalAlign=middle;resizable=0;points=[];autosize=1;strokeColor=none;fillColor=none;" parent="1" vertex="1">
          <mxGeometry x="580" y="140" width="70" height="30" as="geometry" />
        </mxCell>
        <mxCell id="TnYGjynlbYQ4LanoYu0t-10" value="주문서비스" style="text;html=1;align=center;verticalAlign=middle;resizable=0;points=[];autosize=1;strokeColor=none;fillColor=none;" parent="1" vertex="1">
          <mxGeometry x="1050" y="190" width="80" height="30" as="geometry" />
        </mxCell>
        <mxCell id="TnYGjynlbYQ4LanoYu0t-11" value="주소조회" style="text;html=1;align=center;verticalAlign=middle;resizable=0;points=[];autosize=1;strokeColor=none;fillColor=none;" parent="1" vertex="1">
          <mxGeometry x="60" y="190" width="70" height="30" as="geometry" />
        </mxCell>
        <mxCell id="TnYGjynlbYQ4LanoYu0t-12" value="/addr_read" style="text;html=1;align=center;verticalAlign=middle;resizable=0;points=[];autosize=1;strokeColor=none;fillColor=none;" parent="1" vertex="1">
          <mxGeometry x="215" y="190" width="80" height="30" as="geometry" />
        </mxCell>
        <mxCell id="TnYGjynlbYQ4LanoYu0t-13" value="arrDto" style="text;html=1;align=center;verticalAlign=middle;resizable=0;points=[];autosize=1;strokeColor=none;fillColor=none;" parent="1" vertex="1">
          <mxGeometry x="384" y="190" width="60" height="30" as="geometry" />
        </mxCell>
        <mxCell id="TnYGjynlbYQ4LanoYu0t-14" value="arrCode" style="text;html=1;align=center;verticalAlign=middle;resizable=0;points=[];autosize=1;strokeColor=none;fillColor=none;" parent="1" vertex="1">
          <mxGeometry x="580" y="190" width="70" height="30" as="geometry" />
        </mxCell>
        <mxCell id="TnYGjynlbYQ4LanoYu0t-15" value="arrDto에 대한 arrCode&lt;br&gt;(우편번호) 조회" style="text;html=1;align=center;verticalAlign=middle;resizable=0;points=[];autosize=1;strokeColor=none;fillColor=none;" parent="1" vertex="1">
          <mxGeometry x="750" y="185" width="140" height="40" as="geometry" />
        </mxCell>
        <mxCell id="TnYGjynlbYQ4LanoYu0t-16" value="주소조회" style="text;html=1;align=center;verticalAlign=middle;resizable=0;points=[];autosize=1;strokeColor=none;fillColor=none;" parent="1" vertex="1">
          <mxGeometry x="60" y="230" width="70" height="30" as="geometry" />
        </mxCell>
        <mxCell id="TnYGjynlbYQ4LanoYu0t-17" value="/addr_read" style="text;html=1;align=center;verticalAlign=middle;resizable=0;points=[];autosize=1;strokeColor=none;fillColor=none;" parent="1" vertex="1">
          <mxGeometry x="215" y="230" width="80" height="30" as="geometry" />
        </mxCell>
        <mxCell id="TnYGjynlbYQ4LanoYu0t-18" value="arrCode" style="text;html=1;align=center;verticalAlign=middle;resizable=0;points=[];autosize=1;strokeColor=none;fillColor=none;" parent="1" vertex="1">
          <mxGeometry x="580" y="230" width="70" height="30" as="geometry" />
        </mxCell>
        <mxCell id="TnYGjynlbYQ4LanoYu0t-19" value="arrDto에 대한 arrCode&lt;br&gt;(우편번호) 조회" style="text;html=1;align=center;verticalAlign=middle;resizable=0;points=[];autosize=1;strokeColor=none;fillColor=none;" parent="1" vertex="1">
          <mxGeometry x="760" y="230" width="140" height="40" as="geometry" />
        </mxCell>
        <mxCell id="TnYGjynlbYQ4LanoYu0t-20" value="주문서비스" style="text;html=1;align=center;verticalAlign=middle;resizable=0;points=[];autosize=1;strokeColor=none;fillColor=none;" parent="1" vertex="1">
          <mxGeometry x="1050" y="235" width="80" height="30" as="geometry" />
        </mxCell>
        <mxCell id="TnYGjynlbYQ4LanoYu0t-21" value="주문조회" style="text;html=1;align=center;verticalAlign=middle;resizable=0;points=[];autosize=1;strokeColor=none;fillColor=none;" parent="1" vertex="1">
          <mxGeometry x="60" y="265" width="70" height="30" as="geometry" />
        </mxCell>
        <mxCell id="TnYGjynlbYQ4LanoYu0t-22" value="주문조회" style="text;html=1;align=center;verticalAlign=middle;resizable=0;points=[];autosize=1;strokeColor=none;fillColor=none;" parent="1" vertex="1">
          <mxGeometry x="60" y="310" width="70" height="30" as="geometry" />
        </mxCell>
        <mxCell id="TnYGjynlbYQ4LanoYu0t-23" value="/odr_read" style="text;html=1;align=center;verticalAlign=middle;resizable=0;points=[];autosize=1;strokeColor=none;fillColor=none;" parent="1" vertex="1">
          <mxGeometry x="220" y="265" width="70" height="30" as="geometry" />
        </mxCell>
        <mxCell id="TnYGjynlbYQ4LanoYu0t-24" value="/odr_read" style="text;html=1;align=center;verticalAlign=middle;resizable=0;points=[];autosize=1;strokeColor=none;fillColor=none;" parent="1" vertex="1">
          <mxGeometry x="220" y="310" width="70" height="30" as="geometry" />
        </mxCell>
        <mxCell id="TnYGjynlbYQ4LanoYu0t-25" value="/odr_read에 대한 odrDto조회" style="text;html=1;align=center;verticalAlign=middle;resizable=0;points=[];autosize=1;strokeColor=none;fillColor=none;" parent="1" vertex="1">
          <mxGeometry x="735" y="310" width="180" height="30" as="geometry" />
        </mxCell>
        <mxCell id="TnYGjynlbYQ4LanoYu0t-26" value="전체 주문 조회" style="text;html=1;align=center;verticalAlign=middle;resizable=0;points=[];autosize=1;strokeColor=none;fillColor=none;" parent="1" vertex="1">
          <mxGeometry x="775" y="270" width="100" height="30" as="geometry" />
        </mxCell>
        <mxCell id="TnYGjynlbYQ4LanoYu0t-27" value="odrCode" style="text;html=1;align=center;verticalAlign=middle;resizable=0;points=[];autosize=1;strokeColor=none;fillColor=none;" parent="1" vertex="1">
          <mxGeometry x="580" y="310" width="70" height="30" as="geometry" />
        </mxCell>
        <mxCell id="TnYGjynlbYQ4LanoYu0t-28" value="odrCode" style="text;html=1;align=center;verticalAlign=middle;resizable=0;points=[];autosize=1;strokeColor=none;fillColor=none;" parent="1" vertex="1">
          <mxGeometry x="580" y="265" width="70" height="30" as="geometry" />
        </mxCell>
        <mxCell id="TnYGjynlbYQ4LanoYu0t-29" value="odrDto" style="text;html=1;align=center;verticalAlign=middle;resizable=0;points=[];autosize=1;strokeColor=none;fillColor=none;" parent="1" vertex="1">
          <mxGeometry x="384" y="310" width="60" height="30" as="geometry" />
        </mxCell>
        <mxCell id="TnYGjynlbYQ4LanoYu0t-30" value="주문서비스" style="text;html=1;align=center;verticalAlign=middle;resizable=0;points=[];autosize=1;strokeColor=none;fillColor=none;" parent="1" vertex="1">
          <mxGeometry x="1050" y="270" width="80" height="30" as="geometry" />
        </mxCell>
        <mxCell id="TnYGjynlbYQ4LanoYu0t-31" value="주문서비스" style="text;html=1;align=center;verticalAlign=middle;resizable=0;points=[];autosize=1;strokeColor=none;fillColor=none;" parent="1" vertex="1">
          <mxGeometry x="1050" y="310" width="80" height="30" as="geometry" />
        </mxCell>
      </root>
    </mxGraphModel>
  </diagram>
  <diagram id="6UOPrMKXYQy324pNbWu8" name="MVC2">
    <mxGraphModel dx="2196" dy="-1219" grid="1" gridSize="10" guides="1" tooltips="1" connect="1" arrows="1" fold="1" page="1" pageScale="1" pageWidth="3300" pageHeight="2339" math="0" shadow="0">
      <root>
        <mxCell id="0" />
        <mxCell id="1" parent="0" />
        <mxCell id="k_-27ogxe_KHzgcvIPaD-1" value="" style="rounded=0;whiteSpace=wrap;html=1;" parent="1" vertex="1">
          <mxGeometry x="2085" y="2484" width="480" height="2140" as="geometry" />
        </mxCell>
        <mxCell id="k_-27ogxe_KHzgcvIPaD-2" value="" style="rounded=0;whiteSpace=wrap;html=1;" parent="1" vertex="1">
          <mxGeometry x="1615" y="2484" width="460" height="2140" as="geometry" />
        </mxCell>
        <mxCell id="k_-27ogxe_KHzgcvIPaD-3" value="&lt;font color=&quot;#000000&quot;&gt;Controller&lt;/font&gt;" style="shape=umlFrame;whiteSpace=wrap;html=1;fontColor=#FF0000;" parent="1" vertex="1">
          <mxGeometry x="580" y="2489" width="760" height="2130" as="geometry" />
        </mxCell>
        <mxCell id="k_-27ogxe_KHzgcvIPaD-4" value="&lt;font color=&quot;#000000&quot;&gt;VIew&lt;/font&gt;" style="shape=umlFrame;whiteSpace=wrap;html=1;fontColor=#FF0000;" parent="1" vertex="1">
          <mxGeometry x="55" y="2494" width="475" height="2130" as="geometry" />
        </mxCell>
        <mxCell id="k_-27ogxe_KHzgcvIPaD-5" value="" style="rounded=0;whiteSpace=wrap;html=1;" parent="1" vertex="1">
          <mxGeometry x="1010" y="2634" width="290" height="1160" as="geometry" />
        </mxCell>
        <mxCell id="k_-27ogxe_KHzgcvIPaD-6" value="Presentation Layer(프레젠테이션 계층)&lt;br&gt;- 사용자의 요청사항을 받아서 해당 서비스로 연결해주고 처리 결과를 사용자에게 알려주는 영역" style="rounded=0;whiteSpace=wrap;html=1;" parent="1" vertex="1">
          <mxGeometry x="50" y="2394" width="1170" height="50" as="geometry" />
        </mxCell>
        <mxCell id="k_-27ogxe_KHzgcvIPaD-7" value="Controller" style="text;html=1;align=center;verticalAlign=middle;resizable=0;points=[];autosize=1;strokeColor=none;fillColor=none;" parent="1" vertex="1">
          <mxGeometry x="555" y="2454" width="80" height="30" as="geometry" />
        </mxCell>
        <mxCell id="k_-27ogxe_KHzgcvIPaD-8" value="&lt;p style=&quot;margin:0px;margin-top:4px;text-align:center;&quot;&gt;&lt;b&gt;FrontController&lt;/b&gt;&lt;/p&gt;&lt;hr size=&quot;1&quot;&gt;&lt;p style=&quot;margin:0px;margin-left:4px;&quot;&gt;- map&amp;lt;String,Object&amp;gt; : Hashmap()&lt;/p&gt;&lt;hr size=&quot;1&quot;&gt;&lt;p style=&quot;margin:0px;margin-left:4px;&quot;&gt;- init() : void&lt;/p&gt;&lt;p style=&quot;margin:0px;margin-left:4px;&quot;&gt;+ execute(request,serviceno,param) : void&lt;/p&gt;" style="verticalAlign=top;align=left;overflow=fill;fontSize=12;fontFamily=Helvetica;html=1;whiteSpace=wrap;" parent="1" vertex="1">
          <mxGeometry x="672.5" y="3139" width="240" height="201" as="geometry" />
        </mxCell>
        <mxCell id="k_-27ogxe_KHzgcvIPaD-9" value="" style="rounded=0;whiteSpace=wrap;html=1;" parent="1" vertex="1">
          <mxGeometry x="86.25" y="3019" width="415" height="380" as="geometry" />
        </mxCell>
        <mxCell id="k_-27ogxe_KHzgcvIPaD-10" value="TUI" style="text;html=1;align=center;verticalAlign=middle;resizable=0;points=[];autosize=1;strokeColor=none;fillColor=none;" parent="1" vertex="1">
          <mxGeometry x="103.75" y="2979" width="40" height="30" as="geometry" />
        </mxCell>
        <mxCell id="k_-27ogxe_KHzgcvIPaD-15" value="&lt;p style=&quot;margin:0px;margin-top:4px;text-align:center;&quot;&gt;&lt;b&gt;OrderController&lt;/b&gt;&lt;/p&gt;&lt;hr size=&quot;1&quot;&gt;&lt;p style=&quot;margin:0px;margin-left:4px;&quot;&gt;&lt;br&gt;&lt;/p&gt;&lt;hr size=&quot;1&quot;&gt;&lt;p style=&quot;margin:0px;margin-left:4px;&quot;&gt;&lt;/p&gt;+ execute(serviceno, param) : void&lt;br&gt;" style="verticalAlign=top;align=left;overflow=fill;fontSize=12;fontFamily=Helvetica;html=1;whiteSpace=wrap;" parent="1" vertex="1">
          <mxGeometry x="1055" y="3124" width="200" height="130" as="geometry" />
        </mxCell>
        <mxCell id="k_-27ogxe_KHzgcvIPaD-16" value="&lt;p style=&quot;margin:0px;margin-top:4px;text-align:center;&quot;&gt;&lt;b&gt;MemberController&lt;/b&gt;&lt;/p&gt;&lt;hr size=&quot;1&quot;&gt;&lt;p style=&quot;margin:0px;margin-left:4px;&quot;&gt;&lt;br&gt;&lt;/p&gt;&lt;hr size=&quot;1&quot;&gt;&lt;p style=&quot;margin:0px;margin-left:4px;&quot;&gt;+ execute(serviceno, param) : void&lt;/p&gt;&lt;p style=&quot;margin:0px;margin-left:4px;&quot;&gt;&lt;br&gt;&lt;/p&gt;" style="verticalAlign=top;align=left;overflow=fill;fontSize=12;fontFamily=Helvetica;html=1;whiteSpace=wrap;" parent="1" vertex="1">
          <mxGeometry x="1055" y="2665" width="200" height="130" as="geometry" />
        </mxCell>
        <mxCell id="k_-27ogxe_KHzgcvIPaD-17" value="&lt;p style=&quot;margin:0px;margin-top:4px;text-align:center;&quot;&gt;&lt;b&gt;ProductController&lt;/b&gt;&lt;/p&gt;&lt;hr size=&quot;1&quot;&gt;&lt;p style=&quot;margin:0px;margin-left:4px;&quot;&gt;&lt;br&gt;&lt;/p&gt;&lt;hr size=&quot;1&quot;&gt;&lt;p style=&quot;margin:0px;margin-left:4px;&quot;&gt;+ execute(serviceno, param) : void&lt;br&gt;&lt;/p&gt;&lt;p style=&quot;margin:0px;margin-left:4px;&quot;&gt;&lt;br&gt;&lt;/p&gt;" style="verticalAlign=top;align=left;overflow=fill;fontSize=12;fontFamily=Helvetica;html=1;whiteSpace=wrap;" parent="1" vertex="1">
          <mxGeometry x="1055" y="3594" width="200" height="130" as="geometry" />
        </mxCell>
        <mxCell id="k_-27ogxe_KHzgcvIPaD-20" value="" style="endArrow=none;html=1;rounded=0;exitX=1;exitY=0.5;exitDx=0;exitDy=0;entryX=0;entryY=0.5;entryDx=0;entryDy=0;startArrow=diamondThin;startFill=1;" parent="1" source="k_-27ogxe_KHzgcvIPaD-8" target="k_-27ogxe_KHzgcvIPaD-16" edge="1">
          <mxGeometry width="50" height="50" relative="1" as="geometry">
            <mxPoint x="550.5" y="2742" as="sourcePoint" />
            <mxPoint x="672.5" y="2932" as="targetPoint" />
          </mxGeometry>
        </mxCell>
        <mxCell id="k_-27ogxe_KHzgcvIPaD-21" value="" style="endArrow=none;html=1;rounded=0;exitX=1;exitY=0.5;exitDx=0;exitDy=0;entryX=0;entryY=0.5;entryDx=0;entryDy=0;endFill=0;startArrow=diamondThin;startFill=1;" parent="1" source="k_-27ogxe_KHzgcvIPaD-8" target="k_-27ogxe_KHzgcvIPaD-15" edge="1">
          <mxGeometry width="50" height="50" relative="1" as="geometry">
            <mxPoint x="832.5" y="2939" as="sourcePoint" />
            <mxPoint x="1072.5" y="2699" as="targetPoint" />
          </mxGeometry>
        </mxCell>
        <mxCell id="k_-27ogxe_KHzgcvIPaD-22" value="" style="endArrow=none;html=1;rounded=0;exitX=1;exitY=0.5;exitDx=0;exitDy=0;entryX=0;entryY=0.5;entryDx=0;entryDy=0;startArrow=diamondThin;startFill=1;" parent="1" source="k_-27ogxe_KHzgcvIPaD-8" target="k_-27ogxe_KHzgcvIPaD-17" edge="1">
          <mxGeometry width="50" height="50" relative="1" as="geometry">
            <mxPoint x="832.5" y="2939" as="sourcePoint" />
            <mxPoint x="1072.5" y="2929" as="targetPoint" />
          </mxGeometry>
        </mxCell>
        <mxCell id="k_-27ogxe_KHzgcvIPaD-23" value="사용자의 모든 요청을 받는 컨트롤러" style="text;html=1;align=center;verticalAlign=middle;resizable=0;points=[];autosize=1;strokeColor=none;fillColor=none;" parent="1" vertex="1">
          <mxGeometry x="682.5" y="3110" width="220" height="30" as="geometry" />
        </mxCell>
        <mxCell id="k_-27ogxe_KHzgcvIPaD-24" value="각 서비스와 연결되는 서브 컨트롤러" style="text;html=1;align=center;verticalAlign=middle;resizable=0;points=[];autosize=1;strokeColor=none;fillColor=none;" parent="1" vertex="1">
          <mxGeometry x="1012.5" y="2574" width="220" height="30" as="geometry" />
        </mxCell>
        <mxCell id="k_-27ogxe_KHzgcvIPaD-26" value="&lt;font color=&quot;#000000&quot;&gt;Model&lt;/font&gt;" style="shape=umlFrame;whiteSpace=wrap;html=1;fontColor=#FF0000;" parent="1" vertex="1">
          <mxGeometry x="1655" y="2500" width="890" height="504" as="geometry" />
        </mxCell>
        <mxCell id="k_-27ogxe_KHzgcvIPaD-27" value="" style="endArrow=open;html=1;rounded=0;entryX=0;entryY=0.5;entryDx=0;entryDy=0;endFill=0;startArrow=none;startFill=0;dashed=1;" parent="1" source="k_-27ogxe_KHzgcvIPaD-16" target="k_-27ogxe_KHzgcvIPaD-54" edge="1">
          <mxGeometry width="50" height="50" relative="1" as="geometry">
            <mxPoint x="1530" y="2730" as="sourcePoint" />
            <mxPoint x="1655.0000000000005" y="2559" as="targetPoint" />
          </mxGeometry>
        </mxCell>
        <mxCell id="k_-27ogxe_KHzgcvIPaD-28" value="" style="endArrow=open;html=1;rounded=0;exitX=0.994;exitY=0.395;exitDx=0;exitDy=0;entryX=0;entryY=0.5;entryDx=0;entryDy=0;startArrow=none;startFill=0;endFill=0;dashed=1;exitPerimeter=0;" parent="1" source="k_-27ogxe_KHzgcvIPaD-54" target="k_-27ogxe_KHzgcvIPaD-63" edge="1">
          <mxGeometry width="50" height="50" relative="1" as="geometry">
            <mxPoint x="2034" y="2581" as="sourcePoint" />
            <mxPoint x="2206.845" y="2641.65" as="targetPoint" />
          </mxGeometry>
        </mxCell>
        <mxCell id="k_-27ogxe_KHzgcvIPaD-29" value="&lt;font color=&quot;#000000&quot;&gt;Model&lt;/font&gt;" style="shape=umlFrame;whiteSpace=wrap;html=1;fontColor=#FF0000;" parent="1" vertex="1">
          <mxGeometry x="1645" y="3034" width="890" height="450" as="geometry" />
        </mxCell>
        <mxCell id="k_-27ogxe_KHzgcvIPaD-33" value="" style="endArrow=open;html=1;entryX=0;entryY=0.5;entryDx=0;entryDy=0;rounded=0;startArrow=none;startFill=0;exitX=1.001;exitY=0.425;exitDx=0;exitDy=0;exitPerimeter=0;dashed=1;endFill=0;" parent="1" source="k_-27ogxe_KHzgcvIPaD-36" target="k_-27ogxe_KHzgcvIPaD-65" edge="1">
          <mxGeometry width="50" height="50" relative="1" as="geometry">
            <mxPoint x="1995" y="3156.7499999999995" as="sourcePoint" />
            <mxPoint x="2250.64" y="3165.8300000000004" as="targetPoint" />
          </mxGeometry>
        </mxCell>
        <mxCell id="k_-27ogxe_KHzgcvIPaD-34" value="&lt;font color=&quot;#000000&quot;&gt;Model&lt;/font&gt;" style="shape=umlFrame;whiteSpace=wrap;html=1;fontColor=#FF0000;" parent="1" vertex="1">
          <mxGeometry x="1645" y="3514" width="890" height="530" as="geometry" />
        </mxCell>
        <mxCell id="k_-27ogxe_KHzgcvIPaD-36" value="&lt;p style=&quot;margin:0px;margin-top:4px;text-align:center;&quot;&gt;&lt;b&gt;OrderService&lt;/b&gt;&lt;/p&gt;&lt;hr size=&quot;1&quot;&gt;&lt;p style=&quot;margin:0px;margin-left:4px;&quot;&gt;- memberService : MemberService&lt;/p&gt;&lt;p style=&quot;margin:0px;margin-left:4px;&quot;&gt;- ProdService : ProdService&lt;/p&gt;&lt;p style=&quot;margin:0px;margin-left:4px;&quot;&gt;- dao : OrderDao / AddrDao&lt;/p&gt;&lt;p style=&quot;margin:0px;margin-left:4px;&quot;&gt;- instance() : OrderService&lt;br&gt;&lt;/p&gt;&lt;hr size=&quot;1&quot;&gt;&lt;p style=&quot;margin:0px;margin-left:4px;&quot;&gt;+ reqOrder(String sid, String order_id) : boolean&lt;/p&gt;&lt;p style=&quot;margin:0px;margin-left:4px;&quot;&gt;+ getAllOrder(OrderDto) : List&amp;lt;OrderDto&amp;gt;&lt;/p&gt;&lt;p style=&quot;margin:0px;margin-left:4px;&quot;&gt;+ addOrder(OrderDto,String) : boolean&lt;/p&gt;&lt;p style=&quot;margin:0px;margin-left:4px;&quot;&gt;&lt;span style=&quot;background-color: initial;&quot;&gt;+ updateOrder(OrderDto, String role) : boolean&lt;/span&gt;&lt;br&gt;&lt;/p&gt;&lt;p style=&quot;margin:0px;margin-left:4px;&quot;&gt;+ updateOrder(AddrDto, String role) : boolean&lt;/p&gt;&lt;p style=&quot;margin:0px;margin-left:4px;&quot;&gt;&lt;span style=&quot;background-color: initial;&quot;&gt;+ removeOrder(OrderDto, String role)&amp;nbsp; : boolean&lt;/span&gt;&lt;/p&gt;&lt;p style=&quot;margin:0px;margin-left:4px;&quot;&gt;+ getInstance() : OrderService&lt;span style=&quot;background-color: initial;&quot;&gt;&lt;br&gt;&lt;/span&gt;&lt;/p&gt;" style="verticalAlign=top;align=left;overflow=fill;fontSize=12;fontFamily=Helvetica;html=1;whiteSpace=wrap;" parent="1" vertex="1">
          <mxGeometry x="1700" y="3550" width="330" height="240" as="geometry" />
        </mxCell>
        <mxCell id="k_-27ogxe_KHzgcvIPaD-37" value="" style="endArrow=open;html=1;rounded=0;entryX=0;entryY=0.5;entryDx=0;entryDy=0;exitX=1.002;exitY=0.423;exitDx=0;exitDy=0;endFill=0;startArrow=none;startFill=0;exitPerimeter=0;dashed=1;" parent="1" source="k_-27ogxe_KHzgcvIPaD-36" target="k_-27ogxe_KHzgcvIPaD-67" edge="1">
          <mxGeometry width="50" height="50" relative="1" as="geometry">
            <mxPoint x="2035" y="3617" as="sourcePoint" />
            <mxPoint x="2230.74" y="3638.338" as="targetPoint" />
          </mxGeometry>
        </mxCell>
        <mxCell id="k_-27ogxe_KHzgcvIPaD-38" value="Business Layer" style="rounded=0;whiteSpace=wrap;html=1;" parent="1" vertex="1">
          <mxGeometry x="1700" y="2404" width="250" height="50" as="geometry" />
        </mxCell>
        <mxCell id="k_-27ogxe_KHzgcvIPaD-39" value="Persistance Layer" style="rounded=0;whiteSpace=wrap;html=1;" parent="1" vertex="1">
          <mxGeometry x="2162.5" y="2404" width="320" height="50" as="geometry" />
        </mxCell>
        <mxCell id="k_-27ogxe_KHzgcvIPaD-40" value="" style="endArrow=none;html=1;rounded=0;entryX=0;entryY=0.5;entryDx=0;entryDy=0;entryPerimeter=0;exitX=1;exitY=0.5;exitDx=0;exitDy=0;" parent="1" source="k_-27ogxe_KHzgcvIPaD-63" target="k_-27ogxe_KHzgcvIPaD-72" edge="1">
          <mxGeometry width="50" height="50" relative="1" as="geometry">
            <mxPoint x="2410" y="2571.5" as="sourcePoint" />
            <mxPoint x="2655.0000000000005" y="2557" as="targetPoint" />
          </mxGeometry>
        </mxCell>
        <mxCell id="k_-27ogxe_KHzgcvIPaD-41" value="" style="endArrow=none;html=1;rounded=0;entryX=0;entryY=0;entryDx=0;entryDy=45;entryPerimeter=0;exitX=0.998;exitY=0.543;exitDx=0;exitDy=0;exitPerimeter=0;" parent="1" source="k_-27ogxe_KHzgcvIPaD-65" target="k_-27ogxe_KHzgcvIPaD-73" edge="1">
          <mxGeometry width="50" height="50" relative="1" as="geometry">
            <mxPoint x="2410" y="3171.5" as="sourcePoint" />
            <mxPoint x="2655.0000000000005" y="3179" as="targetPoint" />
          </mxGeometry>
        </mxCell>
        <mxCell id="k_-27ogxe_KHzgcvIPaD-42" value="" style="endArrow=none;html=1;rounded=0;entryX=0;entryY=0.5;entryDx=0;entryDy=0;entryPerimeter=0;exitX=1;exitY=0.5;exitDx=0;exitDy=0;" parent="1" source="k_-27ogxe_KHzgcvIPaD-67" target="k_-27ogxe_KHzgcvIPaD-74" edge="1">
          <mxGeometry width="50" height="50" relative="1" as="geometry">
            <mxPoint x="2445" y="3635.8300000000004" as="sourcePoint" />
            <mxPoint x="2661.8" y="3626.64" as="targetPoint" />
          </mxGeometry>
        </mxCell>
        <mxCell id="k_-27ogxe_KHzgcvIPaD-44" value="" style="endArrow=open;html=1;rounded=0;entryX=-0.002;entryY=0.427;entryDx=0;entryDy=0;exitX=1;exitY=0.5;exitDx=0;exitDy=0;entryPerimeter=0;startArrow=none;startFill=0;dashed=1;endFill=0;" parent="1" source="k_-27ogxe_KHzgcvIPaD-15" target="k_-27ogxe_KHzgcvIPaD-36" edge="1">
          <mxGeometry width="50" height="50" relative="1" as="geometry">
            <mxPoint x="1530" y="3189" as="sourcePoint" />
            <mxPoint x="1665" y="2899" as="targetPoint" />
          </mxGeometry>
        </mxCell>
        <mxCell id="k_-27ogxe_KHzgcvIPaD-45" value="1 입력값검증&lt;br&gt;2 유효성 검증&lt;br&gt;3 서비스 요청&lt;br&gt;4 View로 전달" style="text;html=1;align=left;verticalAlign=middle;resizable=0;points=[];autosize=1;strokeColor=none;fillColor=none;" parent="1" vertex="1">
          <mxGeometry x="1027.5" y="2514" width="100" height="70" as="geometry" />
        </mxCell>
        <mxCell id="k_-27ogxe_KHzgcvIPaD-46" value="Dao - DB CRUD" style="text;html=1;align=center;verticalAlign=middle;resizable=0;points=[];autosize=1;strokeColor=none;fillColor=none;" parent="1" vertex="1">
          <mxGeometry x="2225" y="2504" width="110" height="30" as="geometry" />
        </mxCell>
        <mxCell id="k_-27ogxe_KHzgcvIPaD-49" value="&lt;p style=&quot;margin:0px;margin-top:4px;text-align:center;&quot;&gt;&lt;b&gt;로그인화면 Class&lt;/b&gt;&lt;/p&gt;&lt;hr size=&quot;1&quot;&gt;&lt;p style=&quot;margin:0px;margin-left:4px;&quot;&gt;+ field: Type&lt;/p&gt;&lt;hr size=&quot;1&quot;&gt;&lt;p style=&quot;margin:0px;margin-left:4px;&quot;&gt;+ method(): Type&lt;/p&gt;" style="verticalAlign=top;align=left;overflow=fill;fontSize=12;fontFamily=Helvetica;html=1;whiteSpace=wrap;" parent="1" vertex="1">
          <mxGeometry x="123.75" y="3224" width="155" height="100" as="geometry" />
        </mxCell>
        <mxCell id="k_-27ogxe_KHzgcvIPaD-50" value="&lt;p style=&quot;margin:0px;margin-top:4px;text-align:center;&quot;&gt;&lt;b&gt;메인 화면 Class&lt;/b&gt;&lt;/p&gt;&lt;hr size=&quot;1&quot;&gt;&lt;p style=&quot;margin:0px;margin-left:4px;&quot;&gt;+ field: Type&lt;/p&gt;&lt;hr size=&quot;1&quot;&gt;&lt;p style=&quot;margin:0px;margin-left:4px;&quot;&gt;+ method(): Type&lt;/p&gt;" style="verticalAlign=top;align=left;overflow=fill;fontSize=12;fontFamily=Helvetica;html=1;whiteSpace=wrap;" parent="1" vertex="1">
          <mxGeometry x="323.75" y="3119" width="160" height="130" as="geometry" />
        </mxCell>
        <mxCell id="k_-27ogxe_KHzgcvIPaD-51" value="&lt;p style=&quot;margin:0px;margin-top:4px;text-align:center;&quot;&gt;&lt;b&gt;주문 조회 화면 Class&lt;/b&gt;&lt;/p&gt;&lt;hr size=&quot;1&quot;&gt;&lt;p style=&quot;margin:0px;margin-left:4px;&quot;&gt;+ field: Type&lt;/p&gt;&lt;hr size=&quot;1&quot;&gt;&lt;p style=&quot;margin:0px;margin-left:4px;&quot;&gt;+ method(): Type&lt;/p&gt;" style="verticalAlign=top;align=left;overflow=fill;fontSize=12;fontFamily=Helvetica;html=1;whiteSpace=wrap;" parent="1" vertex="1">
          <mxGeometry x="123.75" y="3059" width="155" height="90" as="geometry" />
        </mxCell>
        <mxCell id="k_-27ogxe_KHzgcvIPaD-54" value="&lt;p style=&quot;margin:0px;margin-top:4px;text-align:center;&quot;&gt;&lt;b&gt;Member Service&lt;/b&gt;&lt;/p&gt;&lt;hr size=&quot;1&quot;&gt;&amp;nbsp;- instance() : MemberService&lt;br&gt;&lt;p style=&quot;margin:0px;margin-left:4px;&quot;&gt;- dao : MemberDao&lt;/p&gt;&lt;hr size=&quot;1&quot;&gt;&lt;p style=&quot;text-align: justify; margin: 0px 0px 0px 4px;&quot;&gt;+ memberJoin (MemberDto dto): boolean&lt;/p&gt;&lt;p style=&quot;text-align: justify; margin: 0px 0px 0px 4px;&quot;&gt;+ memberSearch(String role) : List&amp;lt;MemberDto&amp;gt;&lt;/p&gt;&lt;p style=&quot;text-align: justify; margin: 0px 0px 0px 4px;&quot;&gt;+ memberSearch(String id, String sid) : MemberDto&lt;/p&gt;&lt;p style=&quot;text-align: justify; margin: 0px 0px 0px 4px;&quot;&gt;+ memberUpdate(MemberDto dto, String sid) : boolean&lt;/p&gt;&lt;p style=&quot;text-align: justify; margin: 0px 0px 0px 4px;&quot;&gt;+ memberDelete(String id,String sid) : boolean&lt;/p&gt;&lt;p style=&quot;text-align: justify; margin: 0px 0px 0px 4px;&quot;&gt;&lt;br&gt;&lt;/p&gt;&lt;p style=&quot;text-align: justify; margin: 0px 0px 0px 4px;&quot;&gt;+ Login(String id, String pw) : String&lt;/p&gt;&lt;p style=&quot;text-align: justify; margin: 0px 0px 0px 4px;&quot;&gt;+ LogOut(String id,String sid) : boolean&lt;/p&gt;&lt;p style=&quot;text-align: justify; margin: 0px 0px 0px 4px;&quot;&gt;+ getRole(String sid) : String&lt;/p&gt;&lt;p style=&quot;text-align: justify; margin: 0px 0px 0px 4px;&quot;&gt;&lt;br&gt;&lt;/p&gt;&lt;p style=&quot;text-align: justify; margin: 0px 0px 0px 4px;&quot;&gt;+ getInstance() : MemberService&lt;/p&gt;" style="verticalAlign=top;align=left;overflow=fill;fontSize=12;fontFamily=Helvetica;html=1;whiteSpace=wrap;" parent="1" vertex="1">
          <mxGeometry x="1730" y="2520" width="300" height="246" as="geometry" />
        </mxCell>
        <mxCell id="k_-27ogxe_KHzgcvIPaD-55" value="" style="edgeStyle=orthogonalEdgeStyle;rounded=0;orthogonalLoop=1;jettySize=auto;html=1;endArrow=none;endFill=0;startArrow=open;startFill=0;dashed=1;entryX=0.5;entryY=1;entryDx=0;entryDy=0;exitX=0.5;exitY=0;exitDx=0;exitDy=0;" parent="1" source="k_-27ogxe_KHzgcvIPaD-64" target="k_-27ogxe_KHzgcvIPaD-63" edge="1">
          <mxGeometry relative="1" as="geometry">
            <mxPoint x="2307.5" y="2764" as="sourcePoint" />
            <mxPoint x="2307.5" y="2744" as="targetPoint" />
            <Array as="points">
              <mxPoint x="2323" y="2754" />
              <mxPoint x="2323" y="2754" />
            </Array>
          </mxGeometry>
        </mxCell>
        <mxCell id="k_-27ogxe_KHzgcvIPaD-57" value="" style="edgeStyle=orthogonalEdgeStyle;rounded=0;orthogonalLoop=1;jettySize=auto;html=1;endArrow=none;endFill=0;startArrow=open;startFill=0;dashed=1;entryX=0.5;entryY=1;entryDx=0;entryDy=0;exitX=0.5;exitY=0;exitDx=0;exitDy=0;" parent="1" source="k_-27ogxe_KHzgcvIPaD-66" target="k_-27ogxe_KHzgcvIPaD-65" edge="1">
          <mxGeometry relative="1" as="geometry">
            <mxPoint x="2335" y="3364" as="sourcePoint" />
            <mxPoint x="2342.48" y="3224" as="targetPoint" />
          </mxGeometry>
        </mxCell>
        <mxCell id="k_-27ogxe_KHzgcvIPaD-58" value="Use" style="text;html=1;align=center;verticalAlign=middle;resizable=0;points=[];autosize=1;strokeColor=none;fillColor=none;" parent="1" vertex="1">
          <mxGeometry x="2320" y="3270" width="40" height="30" as="geometry" />
        </mxCell>
        <mxCell id="k_-27ogxe_KHzgcvIPaD-59" value="" style="edgeStyle=orthogonalEdgeStyle;rounded=0;orthogonalLoop=1;jettySize=auto;html=1;endArrow=none;endFill=0;startArrow=open;startFill=0;dashed=1;entryX=0.5;entryY=1;entryDx=0;entryDy=0;exitX=0.5;exitY=0.008;exitDx=0;exitDy=0;exitPerimeter=0;" parent="1" source="k_-27ogxe_KHzgcvIPaD-68" target="k_-27ogxe_KHzgcvIPaD-67" edge="1">
          <mxGeometry relative="1" as="geometry">
            <mxPoint x="2322.5" y="3814" as="sourcePoint" />
            <mxPoint x="2322.5" y="3782" as="targetPoint" />
          </mxGeometry>
        </mxCell>
        <mxCell id="k_-27ogxe_KHzgcvIPaD-60" value="Use" style="text;html=1;align=center;verticalAlign=middle;resizable=0;points=[];autosize=1;strokeColor=none;fillColor=none;" parent="1" vertex="1">
          <mxGeometry x="2335" y="3784" width="40" height="30" as="geometry" />
        </mxCell>
        <mxCell id="k_-27ogxe_KHzgcvIPaD-61" value="Use" style="text;html=1;align=center;verticalAlign=middle;resizable=0;points=[];autosize=1;strokeColor=none;fillColor=none;" parent="1" vertex="1">
          <mxGeometry x="1480" y="2690" width="40" height="30" as="geometry" />
        </mxCell>
        <mxCell id="k_-27ogxe_KHzgcvIPaD-63" value="&lt;p style=&quot;margin:0px;margin-top:4px;text-align:center;&quot;&gt;&lt;b&gt;MemberDao&lt;/b&gt;&lt;/p&gt;&lt;hr size=&quot;1&quot;&gt;&lt;p style=&quot;border-color: var(--border-color); margin: 0px 0px 0px 4px;&quot;&gt;- id : String&lt;/p&gt;&lt;p style=&quot;border-color: var(--border-color); margin: 0px 0px 0px 4px;&quot;&gt;- pw : String&lt;/p&gt;&lt;p style=&quot;border-color: var(--border-color); margin: 0px 0px 0px 4px;&quot;&gt;- url : String&lt;/p&gt;&lt;p style=&quot;border-color: var(--border-color); margin: 0px 0px 0px 4px;&quot;&gt;- conn : Connection&lt;/p&gt;&lt;p style=&quot;border-color: var(--border-color); margin: 0px 0px 0px 4px;&quot;&gt;- pstmt : PreparedStatement&lt;/p&gt;&lt;p style=&quot;border-color: var(--border-color); margin: 0px 0px 0px 4px;&quot;&gt;- rs : ResultSet&lt;/p&gt;&lt;p style=&quot;border-color: var(--border-color); margin: 0px 0px 0px 4px;&quot;&gt;- instance : MemberDao&lt;br&gt;&lt;/p&gt;&lt;hr style=&quot;border-color: var(--border-color);&quot; size=&quot;1&quot;&gt;&lt;p style=&quot;border-color: var(--border-color); margin: 0px 0px 0px 4px;&quot;&gt;+ select() : List&amp;lt;MemberDto&amp;gt;&lt;/p&gt;&lt;p style=&quot;border-color: var(--border-color); margin: 0px 0px 0px 4px;&quot;&gt;+ insert(MemberDto dto) : int&lt;/p&gt;&lt;p style=&quot;border-color: var(--border-color); margin: 0px 0px 0px 4px;&quot;&gt;+ update(MemeberDto dto) : int&amp;nbsp;&lt;/p&gt;&lt;p style=&quot;border-color: var(--border-color); margin: 0px 0px 0px 4px;&quot;&gt;+ delete(String id) : int&lt;/p&gt;&lt;p style=&quot;border-color: var(--border-color); margin: 0px 0px 0px 4px;&quot;&gt;+ getInstance() : MemberDao&lt;/p&gt;" style="verticalAlign=top;align=left;overflow=fill;fontSize=12;fontFamily=Helvetica;html=1;whiteSpace=wrap;" parent="1" vertex="1">
          <mxGeometry x="2225" y="2580" width="185" height="224" as="geometry" />
        </mxCell>
        <mxCell id="k_-27ogxe_KHzgcvIPaD-64" value="&lt;p style=&quot;margin:0px;margin-top:4px;text-align:center;&quot;&gt;&lt;b&gt;회원 정보 저장 Class&lt;/b&gt;&lt;/p&gt;&lt;hr size=&quot;1&quot;&gt;&lt;p style=&quot;margin:0px;margin-left:4px;&quot;&gt;id&lt;span style=&quot;white-space: pre;&quot;&gt;&#x9;&lt;/span&gt;: String&lt;/p&gt;&lt;p style=&quot;margin:0px;margin-left:4px;&quot;&gt;pw&lt;span style=&quot;white-space: pre;&quot;&gt;&#x9;&lt;/span&gt;: String&lt;/p&gt;&lt;p style=&quot;margin:0px;margin-left:4px;&quot;&gt;name : String&lt;/p&gt;&lt;p style=&quot;margin:0px;margin-left:4px;&quot;&gt;adr_addr: String&lt;/p&gt;&lt;p style=&quot;margin:0px;margin-left:4px;&quot;&gt;role : String&lt;/p&gt;&lt;hr size=&quot;1&quot;&gt;&lt;p style=&quot;margin:0px;margin-left:4px;&quot;&gt;+ method(): Type&lt;/p&gt;" style="verticalAlign=top;align=left;overflow=fill;fontSize=12;fontFamily=Helvetica;html=1;whiteSpace=wrap;" parent="1" vertex="1">
          <mxGeometry x="2237.5" y="2854" width="160" height="140" as="geometry" />
        </mxCell>
        <mxCell id="k_-27ogxe_KHzgcvIPaD-65" value="&lt;p style=&quot;border-color: var(--border-color); margin: 4px 0px 0px; text-align: center;&quot;&gt;&lt;b style=&quot;border-color: var(--border-color);&quot;&gt;AddrDao&lt;/b&gt;&lt;/p&gt;&lt;hr style=&quot;border-color: var(--border-color);&quot; size=&quot;1&quot;&gt;&lt;p style=&quot;border-color: var(--border-color); margin: 0px 0px 0px 4px;&quot;&gt;- id : String&lt;/p&gt;&lt;p style=&quot;border-color: var(--border-color); margin: 0px 0px 0px 4px;&quot;&gt;- pw : String&lt;/p&gt;&lt;p style=&quot;border-color: var(--border-color); margin: 0px 0px 0px 4px;&quot;&gt;- url : String&lt;/p&gt;&lt;p style=&quot;border-color: var(--border-color); margin: 0px 0px 0px 4px;&quot;&gt;- conn : Connection&lt;/p&gt;&lt;p style=&quot;border-color: var(--border-color); margin: 0px 0px 0px 4px;&quot;&gt;- pstmt : PreparedStatement&lt;/p&gt;&lt;p style=&quot;border-color: var(--border-color); margin: 0px 0px 0px 4px;&quot;&gt;- rs : ResultSet&lt;/p&gt;&lt;p style=&quot;border-color: var(--border-color); margin: 0px 0px 0px 4px;&quot;&gt;- instance : AddrDao&lt;br&gt;&lt;/p&gt;&lt;hr style=&quot;border-color: var(--border-color);&quot; size=&quot;1&quot;&gt;&lt;p style=&quot;border-color: var(--border-color); margin: 0px 0px 0px 4px;&quot;&gt;+ select() : List&amp;lt;&lt;b style=&quot;border-color: var(--border-color); text-align: center;&quot;&gt;AddrDto&lt;/b&gt;&amp;gt;&lt;/p&gt;&lt;p style=&quot;border-color: var(--border-color); margin: 0px 0px 0px 4px;&quot;&gt;+ insert(&lt;b style=&quot;border-color: var(--border-color); text-align: center;&quot;&gt;AddrDto&amp;nbsp;&lt;/b&gt;dto) : int&lt;/p&gt;&lt;p style=&quot;border-color: var(--border-color); margin: 0px 0px 0px 4px;&quot;&gt;+ update(&lt;b style=&quot;border-color: var(--border-color); text-align: center;&quot;&gt;AddrDto&amp;nbsp;&lt;/b&gt;dto) : int&amp;nbsp;&lt;/p&gt;&lt;p style=&quot;border-color: var(--border-color); margin: 0px 0px 0px 4px;&quot;&gt;&lt;span style=&quot;text-align: center; background-color: initial;&quot;&gt;+ delete(&lt;/span&gt;&lt;b style=&quot;text-align: center; background-color: initial;&quot;&gt;String addr&lt;/b&gt;&lt;span style=&quot;text-align: center; background-color: initial;&quot;&gt;) : int&lt;/span&gt;&lt;/p&gt;&lt;p style=&quot;border-color: var(--border-color); margin: 0px 0px 0px 4px;&quot;&gt;+ getInstance() : AddrDao&lt;br&gt;&lt;/p&gt;" style="verticalAlign=top;align=left;overflow=fill;fontSize=12;fontFamily=Helvetica;html=1;whiteSpace=wrap;" parent="1" vertex="1">
          <mxGeometry x="2190" y="3040" width="207.5" height="230" as="geometry" />
        </mxCell>
        <mxCell id="k_-27ogxe_KHzgcvIPaD-66" value="&lt;p style=&quot;margin:0px;margin-top:4px;text-align:center;&quot;&gt;&lt;b&gt;AddrDto&lt;/b&gt;&lt;/p&gt;&lt;hr size=&quot;1&quot;&gt;&lt;p style=&quot;margin:0px;margin-left:4px;&quot;&gt;addr : String&lt;/p&gt;&lt;p style=&quot;margin:0px;margin-left:4px;&quot;&gt;member_id : String&lt;/p&gt;&lt;p style=&quot;margin:0px;margin-left:4px;&quot;&gt;order_id : String&lt;/p&gt;&lt;p style=&quot;margin:0px;margin-left:4px;&quot;&gt;&lt;br&gt;&lt;/p&gt;&lt;hr size=&quot;1&quot;&gt;&lt;p style=&quot;margin:0px;margin-left:4px;&quot;&gt;+ method(): Type&lt;/p&gt;" style="verticalAlign=top;align=left;overflow=fill;fontSize=12;fontFamily=Helvetica;html=1;whiteSpace=wrap;" parent="1" vertex="1">
          <mxGeometry x="2213.75" y="3324" width="160" height="130" as="geometry" />
        </mxCell>
        <mxCell id="k_-27ogxe_KHzgcvIPaD-67" value="&lt;p style=&quot;border-color: var(--border-color); margin: 4px 0px 0px; text-align: center;&quot;&gt;&lt;b style=&quot;border-color: var(--border-color);&quot;&gt;OrderDao&lt;/b&gt;&lt;/p&gt;&lt;hr style=&quot;border-color: var(--border-color);&quot; size=&quot;1&quot;&gt;&lt;p style=&quot;border-color: var(--border-color); margin: 0px 0px 0px 4px;&quot;&gt;- id : String&lt;/p&gt;&lt;p style=&quot;border-color: var(--border-color); margin: 0px 0px 0px 4px;&quot;&gt;- pw : String&lt;/p&gt;&lt;p style=&quot;border-color: var(--border-color); margin: 0px 0px 0px 4px;&quot;&gt;- url : String&lt;/p&gt;&lt;p style=&quot;border-color: var(--border-color); margin: 0px 0px 0px 4px;&quot;&gt;- conn : Connection&lt;/p&gt;&lt;p style=&quot;border-color: var(--border-color); margin: 0px 0px 0px 4px;&quot;&gt;- pstmt : PreparedStatement&lt;/p&gt;&lt;p style=&quot;border-color: var(--border-color); margin: 0px 0px 0px 4px;&quot;&gt;- rs : ResultSet&lt;/p&gt;&lt;p style=&quot;border-color: var(--border-color); margin: 0px 0px 0px 4px;&quot;&gt;- instance : OrderDao&lt;br&gt;&lt;/p&gt;&lt;hr style=&quot;border-color: var(--border-color);&quot; size=&quot;1&quot;&gt;&lt;p style=&quot;border-color: var(--border-color); margin: 0px 0px 0px 4px;&quot;&gt;+ select() : List&amp;lt;&lt;b style=&quot;border-color: var(--border-color); text-align: center;&quot;&gt;OrderDto&lt;/b&gt;&lt;span style=&quot;background-color: initial;&quot;&gt;&amp;gt;&lt;/span&gt;&lt;/p&gt;&lt;p style=&quot;border-color: var(--border-color); margin: 0px 0px 0px 4px;&quot;&gt;+ insert(&lt;b style=&quot;border-color: var(--border-color); text-align: center;&quot;&gt;OrderDto&amp;nbsp;&lt;/b&gt;&lt;span style=&quot;background-color: initial;&quot;&gt;dto) : int&lt;/span&gt;&lt;/p&gt;&lt;p style=&quot;border-color: var(--border-color); margin: 0px 0px 0px 4px;&quot;&gt;+ update(&lt;b style=&quot;border-color: var(--border-color); text-align: center;&quot;&gt;OrderDto&amp;nbsp;&lt;/b&gt;&lt;span style=&quot;background-color: initial;&quot;&gt;dto) : int&amp;nbsp;&lt;/span&gt;&lt;/p&gt;&lt;p style=&quot;border-color: var(--border-color); margin: 0px 0px 0px 4px;&quot;&gt;&lt;span style=&quot;text-align: center; background-color: initial;&quot;&gt;+ delete(String&lt;/span&gt;&lt;b style=&quot;text-align: center; background-color: initial;&quot;&gt;&amp;nbsp;Order_id&lt;/b&gt;&lt;span style=&quot;text-align: center; background-color: initial;&quot;&gt;) : int&lt;/span&gt;&lt;/p&gt;&lt;p style=&quot;border-color: var(--border-color); margin: 0px 0px 0px 4px;&quot;&gt;+ getInstance() : OrderDao&lt;span style=&quot;background-color: initial;&quot;&gt;&lt;br&gt;&lt;/span&gt;&lt;/p&gt;" style="verticalAlign=top;align=left;overflow=fill;fontSize=12;fontFamily=Helvetica;html=1;whiteSpace=wrap;" parent="1" vertex="1">
          <mxGeometry x="2227.5" y="3530" width="180" height="234" as="geometry" />
        </mxCell>
        <mxCell id="k_-27ogxe_KHzgcvIPaD-68" value="&lt;p style=&quot;margin:0px;margin-top:4px;text-align:center;&quot;&gt;&lt;b&gt;OrderDto&lt;/b&gt;&lt;/p&gt;&lt;hr size=&quot;1&quot;&gt;&lt;p style=&quot;margin:0px;margin-left:4px;&quot;&gt;order_id : String&amp;nbsp;&lt;/p&gt;&lt;p style=&quot;margin:0px;margin-left:4px;&quot;&gt;member_id : String&lt;/p&gt;&lt;p style=&quot;margin:0px;margin-left:4px;&quot;&gt;product_code : int&lt;/p&gt;&lt;p style=&quot;margin:0px;margin-left:4px;&quot;&gt;product_name : String&lt;/p&gt;&lt;p style=&quot;margin:0px;margin-left:4px;&quot;&gt;adr_addr : String&lt;/p&gt;&lt;p style=&quot;margin:0px;margin-left:4px;&quot;&gt;odr_amount : int&lt;/p&gt;&lt;p style=&quot;margin:0px;margin-left:4px;&quot;&gt;odr_date : date&lt;/p&gt;&lt;p style=&quot;margin:0px;margin-left:4px;&quot;&gt;price : int&lt;/p&gt;&lt;hr size=&quot;1&quot;&gt;&lt;p style=&quot;margin:0px;margin-left:4px;&quot;&gt;+ method(): Type&lt;/p&gt;" style="verticalAlign=top;align=left;overflow=fill;fontSize=12;fontFamily=Helvetica;html=1;whiteSpace=wrap;" parent="1" vertex="1">
          <mxGeometry x="2237.5" y="3824" width="160" height="180" as="geometry" />
        </mxCell>
        <mxCell id="k_-27ogxe_KHzgcvIPaD-69" value="&lt;font color=&quot;#000000&quot;&gt;Model&lt;/font&gt;" style="shape=umlFrame;whiteSpace=wrap;html=1;fontColor=#FF0000;" parent="1" vertex="1">
          <mxGeometry x="1645" y="4074" width="890" height="520" as="geometry" />
        </mxCell>
        <mxCell id="k_-27ogxe_KHzgcvIPaD-70" value="&lt;p style=&quot;border-color: var(--border-color); margin: 4px 0px 0px; text-align: center;&quot;&gt;&lt;b style=&quot;border-color: var(--border-color);&quot;&gt;ProdDao&lt;/b&gt;&lt;/p&gt;&lt;hr style=&quot;border-color: var(--border-color);&quot; size=&quot;1&quot;&gt;&lt;p style=&quot;border-color: var(--border-color); margin: 0px 0px 0px 4px;&quot;&gt;- id : String&lt;/p&gt;&lt;p style=&quot;border-color: var(--border-color); margin: 0px 0px 0px 4px;&quot;&gt;- pw : String&lt;/p&gt;&lt;p style=&quot;border-color: var(--border-color); margin: 0px 0px 0px 4px;&quot;&gt;- url : String&lt;/p&gt;&lt;p style=&quot;border-color: var(--border-color); margin: 0px 0px 0px 4px;&quot;&gt;- conn : Connection&lt;/p&gt;&lt;p style=&quot;border-color: var(--border-color); margin: 0px 0px 0px 4px;&quot;&gt;- pstmt : PreparedStatement&lt;/p&gt;&lt;p style=&quot;border-color: var(--border-color); margin: 0px 0px 0px 4px;&quot;&gt;- rs : ResultSet&lt;/p&gt;&lt;p style=&quot;border-color: var(--border-color); margin: 0px 0px 0px 4px;&quot;&gt;- instance : ProdDao&lt;br&gt;&lt;/p&gt;&lt;hr style=&quot;border-color: var(--border-color);&quot; size=&quot;1&quot;&gt;&lt;p style=&quot;border-color: var(--border-color); margin: 0px 0px 0px 4px;&quot;&gt;+ select() : List&amp;lt;&lt;b style=&quot;border-color: var(--border-color); text-align: center;&quot;&gt;ProdDto&lt;/b&gt;&amp;gt;&lt;/p&gt;&lt;p style=&quot;border-color: var(--border-color); margin: 0px 0px 0px 4px;&quot;&gt;+ insert(&lt;b style=&quot;border-color: var(--border-color); text-align: center;&quot;&gt;ProdDto&amp;nbsp;&lt;/b&gt;dto) : int&lt;/p&gt;&lt;p style=&quot;border-color: var(--border-color); margin: 0px 0px 0px 4px;&quot;&gt;+ update(&lt;b style=&quot;border-color: var(--border-color); text-align: center;&quot;&gt;ProdDto&amp;nbsp;&lt;/b&gt;dto) : int&amp;nbsp;&lt;/p&gt;&lt;p style=&quot;border-color: var(--border-color); margin: 0px 0px 0px 4px;&quot;&gt;&lt;span style=&quot;text-align: center; background-color: initial;&quot;&gt;+ delete(int&amp;nbsp;&lt;/span&gt;&lt;b style=&quot;text-align: center; background-color: initial;&quot;&gt;Product_code&lt;/b&gt;&lt;span style=&quot;text-align: center; background-color: initial;&quot;&gt;) : int&lt;/span&gt;&lt;/p&gt;" style="verticalAlign=top;align=left;overflow=fill;fontSize=12;fontFamily=Helvetica;html=1;whiteSpace=wrap;" parent="1" vertex="1">
          <mxGeometry x="2237.5" y="4090" width="192.5" height="220" as="geometry" />
        </mxCell>
        <mxCell id="k_-27ogxe_KHzgcvIPaD-71" value="&lt;p style=&quot;margin:0px;margin-top:4px;text-align:center;&quot;&gt;&lt;b&gt;ProdDto&lt;/b&gt;&lt;/p&gt;&lt;hr size=&quot;1&quot;&gt;&lt;p style=&quot;margin:0px;margin-left:4px;&quot;&gt;product_code : int&lt;/p&gt;&lt;p style=&quot;margin:0px;margin-left:4px;&quot;&gt;product_name : String&lt;/p&gt;&lt;p style=&quot;margin:0px;margin-left:4px;&quot;&gt;amount : int&lt;/p&gt;&lt;hr size=&quot;1&quot;&gt;&lt;p style=&quot;margin:0px;margin-left:4px;&quot;&gt;+ method(): Type&lt;/p&gt;" style="verticalAlign=top;align=left;overflow=fill;fontSize=12;fontFamily=Helvetica;html=1;whiteSpace=wrap;" parent="1" vertex="1">
          <mxGeometry x="2242.5" y="4414" width="160" height="122" as="geometry" />
        </mxCell>
        <mxCell id="k_-27ogxe_KHzgcvIPaD-72" value="회원&lt;br&gt;테이블" style="shape=cylinder3;whiteSpace=wrap;html=1;boundedLbl=1;backgroundOutline=1;size=15;" parent="1" vertex="1">
          <mxGeometry x="2645" y="2669" width="50" height="70" as="geometry" />
        </mxCell>
        <mxCell id="k_-27ogxe_KHzgcvIPaD-73" value="주소&amp;nbsp;&lt;br&gt;테이블" style="shape=cylinder3;whiteSpace=wrap;html=1;boundedLbl=1;backgroundOutline=1;size=15;" parent="1" vertex="1">
          <mxGeometry x="2655" y="3119" width="50" height="70" as="geometry" />
        </mxCell>
        <mxCell id="k_-27ogxe_KHzgcvIPaD-74" value="주문&amp;nbsp;&lt;br&gt;테이블" style="shape=cylinder3;whiteSpace=wrap;html=1;boundedLbl=1;backgroundOutline=1;size=15;" parent="1" vertex="1">
          <mxGeometry x="2635" y="3624" width="50" height="70" as="geometry" />
        </mxCell>
        <mxCell id="k_-27ogxe_KHzgcvIPaD-75" value="상품&lt;br&gt;테이블" style="shape=cylinder3;whiteSpace=wrap;html=1;boundedLbl=1;backgroundOutline=1;size=15;" parent="1" vertex="1">
          <mxGeometry x="2615" y="4224" width="50" height="70" as="geometry" />
        </mxCell>
        <mxCell id="k_-27ogxe_KHzgcvIPaD-76" value="" style="endArrow=none;html=1;rounded=0;entryX=0;entryY=0.5;entryDx=0;entryDy=0;entryPerimeter=0;exitX=1;exitY=0.5;exitDx=0;exitDy=0;" parent="1" source="k_-27ogxe_KHzgcvIPaD-70" target="k_-27ogxe_KHzgcvIPaD-75" edge="1">
          <mxGeometry width="50" height="50" relative="1" as="geometry">
            <mxPoint x="2405.2" y="4277.360000000001" as="sourcePoint" />
            <mxPoint x="2655" y="4274" as="targetPoint" />
          </mxGeometry>
        </mxCell>
        <mxCell id="lyUBdS8soQ2H2KUs2Rtp-2" value="&lt;p style=&quot;margin:0px;margin-top:4px;text-align:center;&quot;&gt;&lt;b&gt;ProdService&lt;/b&gt;&lt;/p&gt;&lt;hr size=&quot;1&quot;&gt;&lt;p style=&quot;margin:0px;margin-left:4px;&quot;&gt;&lt;span style=&quot;background-color: initial;&quot;&gt;- memberService : MemberService&lt;/span&gt;&lt;/p&gt;&lt;p style=&quot;margin:0px;margin-left:4px;&quot;&gt;&lt;span style=&quot;background-color: initial;&quot;&gt;- dao : prodDao&lt;/span&gt;&lt;br&gt;&lt;/p&gt;&lt;p style=&quot;margin:0px;margin-left:4px;&quot;&gt;- instance() : ProdService&lt;span style=&quot;background-color: initial;&quot;&gt;&lt;br&gt;&lt;/span&gt;&lt;/p&gt;&lt;hr size=&quot;1&quot;&gt;&lt;p style=&quot;margin:0px;margin-left:4px;&quot;&gt;+ reqProd(String sid, int product_code) : boolean&lt;/p&gt;&lt;p style=&quot;margin:0px;margin-left:4px;&quot;&gt;+addProd(String sid, int product_code, String product_name)&lt;/p&gt;&lt;p style=&quot;margin:0px;margin-left:4px;&quot;&gt;: boolean&lt;/p&gt;&lt;p style=&quot;margin:0px;margin-left:4px;&quot;&gt;+updateProd(String sid, int prodcuct_code) : boolean&lt;/p&gt;&lt;p style=&quot;margin:0px;margin-left:4px;&quot;&gt;+removeProd(String sid, int product_code) : boolean&lt;/p&gt;&lt;p style=&quot;margin:0px;margin-left:4px;&quot;&gt;+ getInstance() : ProdService&lt;br&gt;&lt;/p&gt;&lt;p style=&quot;margin:0px;margin-left:4px;&quot;&gt;&lt;br&gt;&lt;/p&gt;" style="verticalAlign=top;align=left;overflow=fill;fontSize=12;fontFamily=Helvetica;html=1;whiteSpace=wrap;" parent="1" vertex="1">
          <mxGeometry x="1690" y="4140" width="350" height="199" as="geometry" />
        </mxCell>
        <mxCell id="lyUBdS8soQ2H2KUs2Rtp-3" value="" style="endArrow=none;html=1;rounded=0;exitX=1;exitY=0.5;exitDx=0;exitDy=0;entryX=0;entryY=0.5;entryDx=0;entryDy=0;" parent="1" source="k_-27ogxe_KHzgcvIPaD-49" target="k_-27ogxe_KHzgcvIPaD-50" edge="1">
          <mxGeometry width="50" height="50" relative="1" as="geometry">
            <mxPoint x="278.75" y="3299" as="sourcePoint" />
            <mxPoint x="418.75" y="3434" as="targetPoint" />
          </mxGeometry>
        </mxCell>
        <mxCell id="lyUBdS8soQ2H2KUs2Rtp-4" value="" style="endArrow=none;html=1;rounded=0;exitX=0;exitY=0.5;exitDx=0;exitDy=0;entryX=1;entryY=0.5;entryDx=0;entryDy=0;" parent="1" source="k_-27ogxe_KHzgcvIPaD-50" target="k_-27ogxe_KHzgcvIPaD-51" edge="1">
          <mxGeometry width="50" height="50" relative="1" as="geometry">
            <mxPoint x="83.75" y="3204" as="sourcePoint" />
            <mxPoint x="208.75" y="3169" as="targetPoint" />
          </mxGeometry>
        </mxCell>
        <mxCell id="lyUBdS8soQ2H2KUs2Rtp-6" value="" style="endArrow=none;html=1;rounded=0;exitX=1;exitY=0.5;exitDx=0;exitDy=0;entryX=0;entryY=0.5;entryDx=0;entryDy=0;endFill=0;startArrow=diamondThin;startFill=1;" parent="1" source="k_-27ogxe_KHzgcvIPaD-50" target="k_-27ogxe_KHzgcvIPaD-8" edge="1">
          <mxGeometry width="50" height="50" relative="1" as="geometry">
            <mxPoint x="470" y="3184" as="sourcePoint" />
            <mxPoint x="610" y="3344" as="targetPoint" />
          </mxGeometry>
        </mxCell>
        <mxCell id="vK9EBbwtU6yBh1xnH1a1-2" value="" style="endArrow=open;html=1;rounded=0;entryX=0.5;entryY=1;entryDx=0;entryDy=0;endFill=0;dashed=1;exitX=0.5;exitY=0;exitDx=0;exitDy=0;" parent="1" source="k_-27ogxe_KHzgcvIPaD-36" target="k_-27ogxe_KHzgcvIPaD-54" edge="1">
          <mxGeometry width="50" height="50" relative="1" as="geometry">
            <mxPoint x="1365" y="3019" as="sourcePoint" />
            <mxPoint x="1825" y="3019" as="targetPoint" />
          </mxGeometry>
        </mxCell>
        <mxCell id="vK9EBbwtU6yBh1xnH1a1-3" value="" style="endArrow=open;html=1;rounded=0;entryX=0.5;entryY=0;entryDx=0;entryDy=0;endFill=0;dashed=1;exitX=0.5;exitY=1;exitDx=0;exitDy=0;" parent="1" source="k_-27ogxe_KHzgcvIPaD-36" target="lyUBdS8soQ2H2KUs2Rtp-2" edge="1">
          <mxGeometry width="50" height="50" relative="1" as="geometry">
            <mxPoint x="1510" y="3784" as="sourcePoint" />
            <mxPoint x="1510" y="3050" as="targetPoint" />
          </mxGeometry>
        </mxCell>
        <mxCell id="vK9EBbwtU6yBh1xnH1a1-4" value="" style="endArrow=open;html=1;rounded=0;entryX=0;entryY=0.5;entryDx=0;entryDy=0;exitX=0.995;exitY=0.558;exitDx=0;exitDy=0;endFill=0;startArrow=none;startFill=0;exitPerimeter=0;dashed=1;" parent="1" source="lyUBdS8soQ2H2KUs2Rtp-2" target="k_-27ogxe_KHzgcvIPaD-70" edge="1">
          <mxGeometry width="50" height="50" relative="1" as="geometry">
            <mxPoint x="2138" y="4061" as="sourcePoint" />
            <mxPoint x="2335" y="4060" as="targetPoint" />
          </mxGeometry>
        </mxCell>
        <mxCell id="vK9EBbwtU6yBh1xnH1a1-5" value="" style="edgeStyle=orthogonalEdgeStyle;rounded=0;orthogonalLoop=1;jettySize=auto;html=1;endArrow=none;endFill=0;startArrow=open;startFill=0;dashed=1;entryX=0.528;entryY=1.001;entryDx=0;entryDy=0;exitX=0.5;exitY=0;exitDx=0;exitDy=0;entryPerimeter=0;" parent="1" source="k_-27ogxe_KHzgcvIPaD-71" target="k_-27ogxe_KHzgcvIPaD-70" edge="1">
          <mxGeometry relative="1" as="geometry">
            <mxPoint x="2470" y="4004" as="sourcePoint" />
            <mxPoint x="2470" y="3943" as="targetPoint" />
          </mxGeometry>
        </mxCell>
        <mxCell id="vK9EBbwtU6yBh1xnH1a1-6" value="Use" style="text;html=1;align=center;verticalAlign=middle;resizable=0;points=[];autosize=1;strokeColor=none;fillColor=none;" parent="1" vertex="1">
          <mxGeometry x="2330" y="4370" width="40" height="30" as="geometry" />
        </mxCell>
        <mxCell id="vK9EBbwtU6yBh1xnH1a1-7" value="Use" style="text;html=1;align=center;verticalAlign=middle;resizable=0;points=[];autosize=1;strokeColor=none;fillColor=none;" parent="1" vertex="1">
          <mxGeometry x="1870" y="3174" width="40" height="30" as="geometry" />
        </mxCell>
        <mxCell id="vK9EBbwtU6yBh1xnH1a1-8" value="Use" style="text;html=1;align=center;verticalAlign=middle;resizable=0;points=[];autosize=1;strokeColor=none;fillColor=none;" parent="1" vertex="1">
          <mxGeometry x="1880" y="4100" width="40" height="30" as="geometry" />
        </mxCell>
        <mxCell id="vK9EBbwtU6yBh1xnH1a1-9" value="" style="endArrow=open;html=1;rounded=0;entryX=0;entryY=0.5;entryDx=0;entryDy=0;endFill=0;startArrow=none;startFill=0;exitX=1;exitY=0.5;exitDx=0;exitDy=0;dashed=1;" parent="1" source="k_-27ogxe_KHzgcvIPaD-17" target="lyUBdS8soQ2H2KUs2Rtp-2" edge="1">
          <mxGeometry width="50" height="50" relative="1" as="geometry">
            <mxPoint x="1140" y="4060" as="sourcePoint" />
            <mxPoint x="1600" y="4060" as="targetPoint" />
          </mxGeometry>
        </mxCell>
        <mxCell id="vK9EBbwtU6yBh1xnH1a1-11" value="Use" style="text;html=1;align=center;verticalAlign=middle;resizable=0;points=[];autosize=1;strokeColor=none;fillColor=none;" parent="1" vertex="1">
          <mxGeometry x="2100" y="3430" width="40" height="30" as="geometry" />
        </mxCell>
        <mxCell id="vK9EBbwtU6yBh1xnH1a1-12" value="Use" style="text;html=1;align=center;verticalAlign=middle;resizable=0;points=[];autosize=1;strokeColor=none;fillColor=none;" parent="1" vertex="1">
          <mxGeometry x="2100" y="3624" width="40" height="30" as="geometry" />
        </mxCell>
        <mxCell id="vK9EBbwtU6yBh1xnH1a1-13" value="Use" style="text;html=1;align=center;verticalAlign=middle;resizable=0;points=[];autosize=1;strokeColor=none;fillColor=none;" parent="1" vertex="1">
          <mxGeometry x="2110" y="4224" width="40" height="30" as="geometry" />
        </mxCell>
        <mxCell id="vK9EBbwtU6yBh1xnH1a1-14" value="Use" style="text;html=1;align=center;verticalAlign=middle;resizable=0;points=[];autosize=1;strokeColor=none;fillColor=none;" parent="1" vertex="1">
          <mxGeometry x="1480" y="3399" width="40" height="30" as="geometry" />
        </mxCell>
        <mxCell id="vK9EBbwtU6yBh1xnH1a1-15" value="Use" style="text;html=1;align=center;verticalAlign=middle;resizable=0;points=[];autosize=1;strokeColor=none;fillColor=none;" parent="1" vertex="1">
          <mxGeometry x="1470" y="3899" width="40" height="30" as="geometry" />
        </mxCell>
        <mxCell id="Qe3eo6FFN9ylF-7KnSBC-1" value="로그인 서비스&#xa;1 전달 받은 ID를 이용해서 DB로부터 회원정보 가져옴&#xa;2 파라미터로 받은 패스워드와 DB의 패스워드의 일치여부(인증)&#xa;3 인증이 완료되이후 인증서비스 세션저장컬렉션에 세션객체저장&#xa;4 클라이언트에게 전달할 세션쿠키 리턴&#xa;&#xa;&#xa;로그아웃 서비스&#xa;1 파라미터를 받아 해당 User세션이 있는지 확인&#xa;1-1 있다면 해당 User세션 제거&#xa;1-2  있다면 권한 쿠키 제거" style="text;whiteSpace=wrap;" parent="1" vertex="1">
          <mxGeometry x="1655" y="2795" width="380" height="180" as="geometry" />
        </mxCell>
        <mxCell id="Qe3eo6FFN9ylF-7KnSBC-2" value="주문 서비스&#xa;1 세션 정보 요청(+로그인 상태 확인) &#xa;  받은 세션 정보로 Role 확인하기&#xa;  if(Role==Role_Guset) 서비스 이용불가&#xa;2 상품 존재 여부 확인&#xa;3 상품 재고 여부 확인&#xa;4 상품 판매" style="text;whiteSpace=wrap;" parent="1" vertex="1">
          <mxGeometry x="1710" y="3809" width="250" height="120" as="geometry" />
        </mxCell>
        <mxCell id="Qe3eo6FFN9ylF-7KnSBC-3" value="상품 서비스&#xa;1 자체적으로 처리 (Service-&gt;Dao-&gt;DB-&gt;결과받기)" style="text;whiteSpace=wrap;" parent="1" vertex="1">
          <mxGeometry x="1700" y="4350" width="300" height="50" as="geometry" />
        </mxCell>
      </root>
    </mxGraphModel>
  </diagram>
  <diagram id="qujZj22bmRgKC2sROXkF" name="페이지-8">
    <mxGraphModel dx="4706" dy="2400" grid="1" gridSize="10" guides="1" tooltips="1" connect="1" arrows="1" fold="1" page="1" pageScale="1" pageWidth="2339" pageHeight="3300" math="0" shadow="0">
      <root>
        <mxCell id="0" />
        <mxCell id="1" parent="0" />
      </root>
    </mxGraphModel>
  </diagram>
  <diagram id="bg-Vtw-au_-6dsgdBE9D" name="페이지-9">
    <mxGraphModel dx="4706" dy="2400" grid="1" gridSize="10" guides="1" tooltips="1" connect="1" arrows="1" fold="1" page="1" pageScale="1" pageWidth="2339" pageHeight="3300" math="0" shadow="0">
      <root>
        <mxCell id="0" />
        <mxCell id="1" parent="0" />
      </root>
    </mxGraphModel>
  </diagram>
</mxfile>
